/* XPM */
static char * collect_xpm[] = {
"16 16 6 1",
" 	c #ADBC3A",
".	c #A8A129",
"+	c #141B1B",
"@	c #F2EAF1",
"#	c #FFAD5D",
"$	c #E46D3A",
"                ",
"                ",
"                ",
"            ..  ",
"     +++++ .  . ",
"    +@####+  .. ",
"    +#$$$#+ ....",
"    +#$$$#+ ... ",
"    +#$$$#+     ",
"  ..+#####+     ",
" .  .+++++      ",
"  . .  .        ",
"    . ...       ",
"      ..        ",
"                ",
"                "};
