/* XPM */
static char * collect_xpm[] = {
"64 64 704 2",
"  	c #ADBC3A",
". 	c #ADBD3A",
"+ 	c #ACB838",
"@ 	c #ABB334",
"# 	c #A9AC2F",
"$ 	c #A8A62A",
"% 	c #A7A227",
"& 	c #A7A025",
"* 	c #ADBB3A",
"= 	c #ADBB39",
"- 	c #ACB738",
"; 	c #ACB236",
"> 	c #ABAC33",
", 	c #AAA631",
"' 	c #AAA22F",
") 	c #A9A12E",
"! 	c #ACBA38",
"~ 	c #ACB938",
"{ 	c #ACB837",
"] 	c #ADB539",
"^ 	c #ADB13B",
"/ 	c #AEAC3D",
"( 	c #AFA73F",
"_ 	c #B0A540",
": 	c #B0A340",
"< 	c #ACB937",
"[ 	c #ABB635",
"} 	c #ABB433",
"| 	c #AAB332",
"1 	c #AAB232",
"2 	c #ACB936",
"3 	c #ABB634",
"4 	c #ABB435",
"5 	c #ADB139",
"6 	c #B0AE42",
"7 	c #B4AC4A",
"8 	c #B7AA51",
"9 	c #B9A854",
"0 	c #BAA856",
"a 	c #ACB636",
"b 	c #ABB233",
"c 	c #AAAE30",
"d 	c #A9AC2E",
"e 	c #A9AB2D",
"f 	c #AAB231",
"g 	c #ABAE33",
"h 	c #AEAC3C",
"i 	c #BAAC57",
"j 	c #C0AC61",
"k 	c #C3AC66",
"l 	c #C4AD69",
"m 	c #ACB437",
"n 	c #ABAF35",
"o 	c #ABAA33",
"p 	c #AAA732",
"q 	c #ACAA36",
"r 	c #B0A942",
"s 	c #B8AA53",
"t 	c #C0AC62",
"u 	c #C7AF6D",
"v 	c #CBB073",
"w 	c #CDB176",
"x 	c #AFA83F",
"y 	c #B0A640",
"z 	c #B0A541",
"A 	c #AEB13B",
"B 	c #B5A84E",
"C 	c #BDAA5C",
"D 	c #C5AD6A",
"E 	c #CCB074",
"F 	c #D0B27A",
"G 	c #D2B37D",
"H 	c #B0AE41",
"I 	c #B4AB4A",
"J 	c #B7A950",
"K 	c #B9A755",
"L 	c #B9A855",
"M 	c #B7A951",
"N 	c #B4AC4B",
"O 	c #B1AE43",
"P 	c #ADBA39",
"Q 	c #C3AC67",
"R 	c #CAAF71",
"S 	c #CFB178",
"T 	c #D3B47F",
"U 	c #B8AA52",
"V 	c #B3AB49",
"W 	c #B0AE40",
"X 	c #C4AC68",
"Y 	c #C4AC67",
"Z 	c #CEB177",
"` 	c #D0B27B",
" .	c #BAAB56",
"..	c #CCB075",
"+.	c #CDB075",
"@.	c #C7AE6D",
"#.	c #AAAF30",
"$.	c #D1B37C",
"%.	c #B6A84E",
"&.	c #D1B37B",
"*.	c #A9AD2E",
"=.	c #ACB737",
"-.	c #BDAA5D",
";.	c #CFB279",
">.	c #D3B37E",
",.	c #D2B37C",
"'.	c #CDB175",
").	c #B9A856",
"!.	c #D3B47E",
"~.	c #CAAF72",
"{.	c #C0AD62",
"].	c #C5AE6A",
"^.	c #D1B27B",
"/.	c #C6AE6A",
"(.	c #BFAB60",
"_.	c #C7AE6C",
":.	c #D1B27C",
"<.	c #C3AB67",
"[.	c #D2B37E",
"}.	c #D0B179",
"|.	c #AAA731",
"1.	c #AFA53F",
"2.	c #B8A652",
"3.	c #C2A964",
"4.	c #CAAC71",
"5.	c #CFAF78",
"6.	c #D1B07B",
"7.	c #D2B17C",
"8.	c #D2B27D",
"9.	c #D0AF79",
"0.	c #CBAD72",
"a.	c #C2A965",
"b.	c #B9A653",
"c.	c #AFA440",
"d.	c #CEB178",
"e.	c #CDB076",
"f.	c #CEB077",
"g.	c #CEAE76",
"h.	c #CAAC70",
"i.	c #B8A653",
"j.	c #AAA531",
"k.	c #AFA23E",
"l.	c #B8A352",
"m.	c #C2A563",
"n.	c #CAA870",
"o.	c #CFAA77",
"p.	c #D1AD7B",
"q.	c #D2B07C",
"r.	c #D2B47D",
"s.	c #D1B07C",
"t.	c #D1AD7A",
"u.	c #CEAA77",
"v.	c #C9A86F",
"w.	c #C1A562",
"x.	c #B8A351",
"y.	c #AFA33E",
"z.	c #C9AF70",
"A.	c #C6AD6C",
"B.	c #C6AC6B",
"C.	c #C8AB6E",
"D.	c #CBAA73",
"E.	c #CCA974",
"F.	c #C2A564",
"G.	c #AFA33F",
"H.	c #A9AB2E",
"I.	c #AAA530",
"J.	c #AFA13D",
"K.	c #B7A04F",
"L.	c #C0A060",
"M.	c #C8A26C",
"N.	c #CDA574",
"O.	c #CFA978",
"P.	c #D1B17C",
"Q.	c #D2B47E",
"R.	c #C3A573",
"S.	c #AB8D63",
"T.	c #866D4C",
"U.	c #59462F",
"V.	c #241C0F",
"W.	c #000105",
"X.	c #00060E",
"Y.	c #000B15",
"Z.	c #000D18",
"`.	c #000E19",
" +	c #000E18",
".+	c #24211F",
"++	c #594835",
"@+	c #866E4F",
"#+	c #AB8D64",
"$+	c #C3A574",
"%+	c #BEA95E",
"&+	c #BEA75D",
"*+	c #C6A46A",
"=+	c #C9A36E",
"-+	c #C7A26B",
";+	c #C0A160",
">+	c #B7A050",
",+	c #AFA23D",
"'+	c #ABB333",
")+	c #AAA630",
"!+	c #AEA23B",
"~+	c #B59F4B",
"{+	c #BD9D5A",
"]+	c #C49D66",
"^+	c #C9A06E",
"/+	c #CDA474",
"(+	c #CFAA78",
"_+	c #D0AF7A",
":+	c #CBAD79",
"<+	c #BEA171",
"[+	c #A88B64",
"}+	c #886F54",
"|+	c #625243",
"1+	c #403B36",
"2+	c #363230",
"3+	c #362F2A",
"4+	c #372D25",
"5+	c #372B21",
"6+	c #372B1F",
"7+	c #372B20",
"8+	c #423425",
"9+	c #634E36",
"0+	c #886C4C",
"a+	c #A88961",
"b+	c #BFA070",
"c+	c #C5AE69",
"d+	c #BDAA5B",
"e+	c #B6A74F",
"f+	c #B5A44D",
"g+	c #BAA155",
"h+	c #C09F5F",
"i+	c #C39D64",
"j+	c #BE9D5B",
"k+	c #B69E4C",
"l+	c #AEA13B",
"m+	c #ABB434",
"n+	c #AAA932",
"o+	c #AEA43A",
"p+	c #B3A047",
"q+	c #BA9D54",
"r+	c #C09C5F",
"s+	c #C59D67",
"t+	c #C9A16E",
"u+	c #CCA773",
"v+	c #CFAB77",
"w+	c #D0AE7A",
"x+	c #D1AF7B",
"y+	c #C3A372",
"z+	c #BEA071",
"A+	c #B5976E",
"B+	c #A48B6C",
"C+	c #907D6B",
"D+	c #7B706A",
"E+	c #6F6765",
"F+	c #6E615C",
"G+	c #6F5A4E",
"H+	c #71543E",
"I+	c #714F31",
"J+	c #724E2C",
"K+	c #724E2D",
"L+	c #724E2E",
"M+	c #74512F",
"N+	c #805D39",
"O+	c #937049",
"P+	c #A6855A",
"Q+	c #B59567",
"R+	c #BF9F6F",
"S+	c #C2A471",
"T+	c #CEB078",
"U+	c #C0AD61",
"V+	c #B7AA52",
"W+	c #B1A844",
"X+	c #B4A149",
"Y+	c #BB9E55",
"Z+	c #BF9B5D",
"`+	c #BA9B55",
" @	c #B39D47",
".@	c #ADA138",
"+@	c #AAA52F",
"@@	c #ABB636",
"#@	c #ABAE34",
"$@	c #ADAA39",
"%@	c #B1A542",
"&@	c #B5A04B",
"*@	c #BA9D55",
"=@	c #BF9C5D",
"-@	c #C49F66",
";@	c #C8A36D",
">@	c #CCA673",
",@	c #CEA877",
"'@	c #A98961",
")@	c #A78964",
"!@	c #A48A6C",
"~@	c #A08E7C",
"{@	c #9E928B",
"]@	c #9C9594",
"^@	c #9F9493",
"/@	c #A18D87",
"(@	c #A38472",
"_@	c #A57A58",
":@	c #A67445",
"<@	c #A7713B",
"[@	c #A7723E",
"}@	c #A7723F",
"|@	c #A5713F",
"1@	c #A47340",
"2@	c #A37747",
"3@	c #A47D51",
"4@	c #A6845A",
"5@	c #A6895E",
"6@	c #A68B5E",
"7@	c #C9AB6F",
"8@	c #C5AC69",
"9@	c #BAAC56",
"0@	c #B3AC49",
"a@	c #AEAB3D",
"b@	c #ADA93A",
"c@	c #B1A541",
"d@	c #B5A14B",
"e@	c #B99D52",
"f@	c #B99B52",
"g@	c #B59C4B",
"h@	c #B09D41",
"i@	c #ACA135",
"j@	c #AAA62F",
"k@	c #AAAC2F",
"l@	c #ACB336",
"m@	c #ADAF38",
"n@	c #AEAA3C",
"o@	c #B4A049",
"p@	c #B89E51",
"q@	c #BE9E5C",
"r@	c #CCA172",
"s@	c #CDA274",
"t@	c #856849",
"u@	c #876D53",
"v@	c #ADA6A5",
"w@	c #BBB4B6",
"x@	c #C5B7B6",
"y@	c #CAB0A7",
"z@	c #CDA48D",
"A@	c #CE976D",
"B@	c #D09054",
"C@	c #D08D48",
"D@	c #D08D4C",
"E@	c #D08E4D",
"F@	c #D18E4D",
"G@	c #CE8C4C",
"H@	c #C4884A",
"I@	c #B58047",
"J@	c #927049",
"K@	c #866B48",
"L@	c #806A46",
"M@	c #C1A663",
"N@	c #BCA75A",
"O@	c #B0AF40",
"P@	c #ADB03A",
"Q@	c #AEAB3C",
"R@	c #B3A046",
"S@	c #B29E45",
"T@	c #B09D40",
"U@	c #AD9E38",
"V@	c #AAA131",
"W@	c #A9A62E",
"X@	c #AAAC30",
"Y@	c #ACBA39",
"Z@	c #ACB538",
"`@	c #ACB037",
" #	c #ADAA38",
".#	c #AEA43C",
"+#	c #B2A045",
"@#	c #B99E52",
"##	c #BF9D5E",
"$#	c #C59C67",
"%#	c #C89C6C",
"&#	c #CA9B6E",
"*#	c #58422C",
"=#	c #615143",
"-#	c #D2C7C9",
";#	c #E0CDCB",
">#	c #E6C6BA",
",#	c #E9B89D",
"'#	c #EAAA7A",
")#	c #EBA15E",
"!#	c #EC9D51",
"~#	c #EC9D50",
"{#	c #EB9E54",
"]#	c #EB9E55",
"^#	c #EB9F55",
"/#	c #EC9F56",
"(#	c #EDA056",
"_#	c #EDA156",
":#	c #E99E55",
"<#	c #DC9651",
"[#	c #7F5D39",
"}#	c #614D33",
"|#	c #53452E",
"1#	c #BAA055",
"2#	c #B4A34A",
"3#	c #B0A741",
"4#	c #ADB439",
"5#	c #ACB438",
"6#	c #ADA939",
"7#	c #ADA439",
"8#	c #ADA037",
"9#	c #AB9F34",
"0#	c #AA9F30",
"a#	c #A9A22D",
"b#	c #A9A62D",
"c#	c #ABB234",
"d#	c #ABAE32",
"e#	c #ABA934",
"f#	c #C09B5E",
"g#	c #C39963",
"h#	c #C49866",
"i#	c #24190D",
"j#	c #EFD3CC",
"k#	c #F5CCBC",
"l#	c #F7BE9F",
"m#	c #F7AE7B",
"n#	c #F7A560",
"o#	c #F7A152",
"p#	c #F7A256",
"q#	c #F7A257",
"r#	c #F7A357",
"s#	c #F8A458",
"t#	c #FBA75A",
"u#	c #FCA95B",
"v#	c #F7A75A",
"w#	c #413324",
"x#	c #21201C",
"y#	c #B49E49",
"z#	c #AEA13C",
"A#	c #ABA633",
"B#	c #AAAC32",
"C#	c #ABB335",
"D#	c #ACB235",
"E#	c #ABAC32",
"F#	c #A9A02B",
"G#	c #A8A02A",
"H#	c #A8A22A",
"I#	c #A9A52C",
"J#	c #AAAA2F",
"K#	c #ABB033",
"L#	c #ACB536",
"M#	c #ABB735",
"N#	c #B6A04C",
"O#	c #BA9C53",
"P#	c #BC9A58",
"Q#	c #BD985A",
"R#	c #FAC5AD",
"S#	c #FAB793",
"T#	c #F8A773",
"U#	c #F79D5A",
"V#	c #F7994F",
"W#	c #F7994E",
"X#	c #F79A52",
"Y#	c #F79A53",
"Z#	c #F89B53",
"`#	c #F99E55",
" $	c #FDA458",
".$	c #FFA85A",
"+$	c #B09D3F",
"@$	c #ABA033",
"#$	c #AAAD30",
"$$	c #A8A62B",
"%$	c #A8A228",
"&$	c #A7A027",
"*$	c #A8A028",
"=$	c #A8A229",
"-$	c #A8A42B",
";$	c #A9A82E",
">$	c #ABAF32",
",$	c #ABB134",
"'$	c #B49D49",
")$	c #B59B4A",
"!$	c #F7A87D",
"~$	c #F39863",
"{$	c #F18E50",
"]$	c #F18A47",
"^$	c #F18B4A",
"/$	c #F08B4A",
"($	c #F18D4B",
"_$	c #F4924E",
":$	c #F99B53",
"<$	c #AC9E36",
"[$	c #AAA12E",
"}$	c #A9A52B",
"|$	c #A8A129",
"1$	c #A8A32A",
"2$	c #A9A82D",
"3$	c #AAAB30",
"4$	c #ADA43A",
"5$	c #AEA13A",
"6$	c #AE9F3A",
"7$	c #ED8851",
"8$	c #EA7D45",
"9$	c #E9793F",
"0$	c #E97A41",
"a$	c #E97941",
"b$	c #EA7D42",
"c$	c #ED8547",
"d$	c #AAA030",
"e$	c #A9A62C",
"f$	c #A9A72D",
"g$	c #E6733D",
"h$	c #E46E3A",
"i$	c #E5703B",
"j$	c #E46E3B",
"k$	c #E6723D",
"l$	c #A9A32C",
"m$	c #A9A52D",
"n$	c #A9A92E",
"o$	c #AAAD31",
"p$	c #ACB436",
"q$	c #A8A029",
"r$	c #A9AD2F",
"s$	c #E36A39",
"t$	c #E36B39",
"u$	c #E36A38",
"v$	c #A9A72C",
"w$	c #AAAF32",
"x$	c #ABB133",
"y$	c #A8A32B",
"z$	c #E46C3A",
"A$	c #AAAE31",
"B$	c #A9AA2F",
"C$	c #AAAB2F",
"D$	c #A9A92F",
"E$	c #AAAE32",
"F$	c #ADBD3B",
"G$	c #ACB637",
"H$	c #AAAC31",
"I$	c #ACB736",
"J$	c #A8A52A",
"K$	c #23231D",
"L$	c #423625",
"M$	c #755331",
"N$	c #A67240",
"O$	c #CE8C4D",
"P$	c #A5723E",
"Q$	c #73522E",
"R$	c #3F3521",
"S$	c #1E2419",
"T$	c #A8A428",
"U$	c #A8A328",
"V$	c #AAA32F",
"W$	c #554C30",
"X$	c #635438",
"Y$	c #82633E",
"Z$	c #A77646",
"`$	c #C6894D",
" %	c #DD9753",
".%	c #DD9752",
"+%	c #C5894B",
"@%	c #A47540",
"#%	c #7C6033",
"$%	c #595127",
"%%	c #4B4C21",
"&%	c #A8A72A",
"*%	c #A8A429",
"=%	c #AAA330",
"-%	c #B0A440",
";%	c #7F7045",
">%	c #88744D",
",%	c #967950",
"'%	c #A87F50",
")%	c #B9844F",
"!%	c #CE8D4D",
"~%	c #B7834C",
"{%	c #A37C47",
"]%	c #8D7440",
"^%	c #7B7039",
"/%	c #746F32",
"(%	c #A9AC2D",
"_%	c #A8A72B",
":%	c #AAA430",
"<%	c #B0A441",
"[%	c #A08C55",
"}%	c #A68E5E",
"|%	c #A98D60",
"1%	c #A9875A",
"2%	c #A67645",
"3%	c #A67E4D",
"4%	c #A58452",
"5%	c #A18953",
"6%	c #9C8B4F",
"7%	c #988C47",
"8%	c #A9AA2C",
"9%	c #B7A060",
"0%	c #BBA16A",
"a%	c #B89C6B",
"b%	c #AB8D61",
"c%	c #977952",
"d%	c #83633F",
"e%	c #967850",
"f%	c #A88C5D",
"g%	c #B49965",
"h%	c #B6A064",
"i%	c #B3A05B",
"j%	c #C3AB66",
"k%	c #C6AB71",
"l%	c #BFA470",
"m%	c #AB9165",
"n%	c #8C7652",
"o%	c #66553B",
"p%	c #443627",
"q%	c #8B7652",
"r%	c #AA9165",
"s%	c #BFA370",
"t%	c #C5AB70",
"u%	c #C2AB65",
"v%	c #AAB032",
"w%	c #A8A82B",
"x%	c #C4AD67",
"y%	c #CBB074",
"z%	c #C3A774",
"A%	c #AC9367",
"B%	c #897553",
"C%	c #5C4F3A",
"D%	c #272521",
"E%	c #5C4F39",
"F%	c #AC9368",
"G%	c #A8A529",
"H%	c #CCB175",
"I%	c #A8A327",
"J%	c #A8A227",
"K%	c #B9A654",
"L%	c #C3AA65",
"M%	c #CFAF79",
"N%	c #C9A76F",
"O%	c #CCA973",
"P%	c #CBAA72",
"Q%	c #C9AF71",
"R%	c #C7AD6C",
"S%	c #C6A26A",
"T%	c #C8A26D",
"U%	c #C5A469",
"V%	c #BDA75C",
"W%	c #BFAA5F",
"X%	c #BEAA5F",
"Y%	c #CCA573",
"Z%	c #BFA05F",
"`%	c #B7A04E",
" &	c #ABB535",
".&	c #AAB031",
"+&	c #B69F4C",
"@&	c #BAA154",
"#&	c #B7A750",
"$&	c #BDAB5D",
"%&	c #B7A850",
"&&	c #C5AD69",
"*&	c #AAA931",
"=&	c #BA9E55",
"-&	c #B8AB53",
";&	c #C6AE6B",
">&	c #B2A845",
",&	c #B1A845",
"'&	c #D0B079",
")&	c #D0AE79",
"!&	c #CEAB77",
"~&	c #B2A443",
"{&	c #B6A04D",
"]&	c #BFAC5F",
"^&	c #AFAC3E",
"/&	c #B3AC48",
"(&	c #CDA974",
"_&	c #ADAF39",
":&	c #AFAA3E",
"<&	c #B1A443",
"[&	c #B3A146",
"}&	c #ADAE38",
"|&	c #B0AF42",
"1&	c #B6AA50",
"2&	c #ADB03B",
"3&	c #AFAF40",
"4&	c #C9A26E",
"5&	c #C8A16D",
"6&	c #BE9E5D",
"7&	c #B89E52",
"8&	c #ADA53A",
"9&	c #AFA83E",
"0&	c #C09E60",
"a&	c #C49C66",
"b&	c #C09D5E",
"c&	c #B99E53",
"d&	c #B2A046",
"e&	c #ABAA32",
"f&	c #BB9B56",
"g&	c #BB9D56",
"h&	c #B5A04A",
"i&	c #AFA43D",
"j&	c #AAAF31",
"k&	c #B1A543",
"l&	c #ABB534",
"m&	c #AAA02E",
"n&	c #B29D45",
"o&	c #AFAA3D",
"p&	c #ACA034",
"q&	c #A9A52E",
"r&	c #ADB939",
"s&	c #A9AB2F",
"t&	c #ACB435",
"u&	c #ACB939",
"                                                                      . .   + @ # $ % & & % $ # @ +   . .                       ",
"                          * * * * * * * * * *                             = - ; > , ' ) ) ' , > ; - =                           ",
"                    * = ! ~ { { { { { { { { ~ ! = *                 * = ! + ] ^ / ( _ : : _ ( / ^ ] + ! = *                     ",
"                    = < [ } | 1 1 1 1 1 1 | } [ < =                 = 2 3 4 5 6 7 8 9 0 0 9 8 7 6 5 4 3 2 =                     ",
"                .   ! a b c d e e e e e e d c b a !   .         .   ! 3 f g h 7 i j k l l k j i 7 h g f 3 !   .                 ",
"                  = + m n o p , , , , , , p o n m + =             = + 4 g q r s t u v w w v u t s r q g 4 + =                   ",
"            * = ! + ] ^ / x y z z z z z z y x / A ] + ! = * * = ! + ] 5 h r B C D E F G G F E D C B r h 5 ] + ! = *             ",
"            = 2 3 4 5 H I J 9 K K L L K K 9 M N O A m a < P P < a m ^ H I s C Q R S G T T G S R Q C U V W 5 4 3 2 =             ",
"        .   ! 3 f g h I i j k X X Y Y X X k j i N / n b [ ~ ~ [ b n / I i t D R Z ` G T T G ` Z R D j  .V h g f 3 !   .         ",
"          = + 4 g q r s t u v ..+.E E +.+.v @.j M x o #.} { { } #.o x J j u E S ` $.G G G G $.` S E u j U r q g 4 + =           ",
"    * = ! + ] 5 h r %.C D E F $.$.&.$.$.$.F v k 9 y p *.| =.=.| *.p y 9 k v F G G G G G G G G G G F ..D C %.r h 5 ] + ! = *     ",
"    = < a m ^ 6 7 s -.Y R ;.G >.>.>.>.T T ,.'.X ).z , d 1 =.=.1 d , z 0 X '.$.T !.G G G G G G >.T G ;.~.X -.s 7 6 ^ m a < =     ",
"    ! [ b n / 7 i {.].R Z ` G >.>.>.>.T T ,.'.X 0 z , d 1 =.=.1 d , z 0 X '.$.T !.G G G G G G >.>.>.^.Z ~./.{.i 7 / n b [ !     ",
"  * ~ } c o x J (._.E S F :.G G G G G >.>.^.E <.K _ , d | =.=.| d , _ K <.E ^.[.>.G G G G G G G $.:.F }.Z E _.(.J x o c } ~ *   ",
"  * { | d |.1.2.3.4.5.6.7.8.G G G G 8.8.7.9.0.a.b.c., d | =.=.| d , c.b.a.0.9.7.8.8.G G G G $.F d.w e.f.5.g.h.3.i.1.|.d | { *   ",
"  * { 1 e j.k.l.m.n.o.p.q.8.G r.r.G 8.s.t.u.v.w.x.y., d | =.=.| d , y.x.w.v.u.t.s.8.G !.!.G ` w z.A.B.C.D.E.v.F.l.G., H.1 { *   ",
"  * { 1 H.I.J.K.L.M.N.O.p.P.G Q.Q.:.R.S.T.U.V.W.X.Y.Z.`.`. + + + + + + + +.+++@+#+$+:.!.!.G S z.k %+&+w.*+=+-+;+>+,+I.H.1 { *   ",
"  * { '+# )+!+~+{+]+^+/+(+_+:.G :.:+<+[+}+|+1+2+3+4+5+6+6+6+7+7+7+7+7+7+7+8+9+0+a+b+:+:.G F E c+d+e+f+g+h+]+i+j+k+l+I.d | { *   ",
"  * ~ m+#.n+o+p+q+r+s+t+u+v+w+x+y+z+A+B+C+D+E+F+G+H+I+J+J+K+L+L+L+L+L+L+L+M+N+O+P+Q+R+S+T+E u U+V+W+_ X+Y+Z+Z+`+ @.@+@# '+{ *   ",
"    ! @@b #@$@%@&@*@=@-@;@>@,@O.'@)@!@~@{@]@^@/@(@_@:@<@<@[@}@}@}@}@}@}@[@|@1@2@3@4@5@6@7@8@j 9@0@a@b@c@d@e@f@g@h@i@j@k@'++   . ",
"    = ~ a l@m@n@c@o@p@q@-@t+r@s@t@u@C+{@v@w@x@y@z@A@B@C@C@D@E@E@E@E@E@F@E@G@H@I@2@J@K@L@M@N@U 0@O@P@m@Q@%@R@S@T@U@V@W@X@@ +   . ",
"    * = Y@+ Z@`@ #.#+#@###$#%#&#*#=#D+]@w@-#;#>#,#'#)#!#~#{#]#]#]#^#/#(#_#:#<#H@1@[#}#|#1#2#3#h 5 4#5#m@6#7#8#9#0#a#b#X@c#=.P   ",
"          = + 4 d#e#.#o@*@f#g#h#i#1+E+^@x@;#j#k#l#m#n#o#o#p#q#q#q#r#s#t#u#v#:#G@|@M+w#x#y#z#A#B#C#=.=.D#E#+@a#F#G#H#I#J#K#L#=.+ ",
"        .   ! M#| d# #%@N#O#P#Q#W.2+F+/@y@>#k#R#S#T#U#V#W#X#Y#X#X#Z#`# $.$u#_#E@[@L+7+ ++$@$I#d '+{ { m+#$$$%$&$*$=$-$;$X@>$,$c#",
"            = < M#4 `@n@%@R@'$)$X.3+G+(@z@,#l#S#!$~${$]$]$^$^$/$/$($_$:$ $t#(#F@}@L+7+ +<$[$}$d '+{ { m+#$$$%$&$*$|$1$I#2$J#3$X@",
"              = ! + Z@m@$@4$5$6$Y.4+H+_@A@'#m#T#~$7$8$9$9$0$0$a$0$b$c$_$`#s#/#E@}@L+7+ +d$a#b##$@ =.=.c#X@e$=$*$*$|$H#1$}$e$b#f$",
"                  = + l@#@n+)+I.Z.5+I+:@B@)#n#U#{$8$g$h$h$i$i$j$j$k$b$($Z#r#^#E@}@L+7+ +l$m$n$o$c#p$4 K#J#I#=$q$q$|$H#1$}$e$b#f$",
"                .   Y@a b #.r$d `.6+J+<@C@!#o#V#]$9$h$s$s$t$t$u$u$j$0$/$X#q#]#E@}@L+7+ +v$J#o$w$K#x$>$X@f$y$|$*$*$|$H#I#f$J#3$X@",
"                    = < @@m+'+1 `.6+J+<@C@~#o#W#]$9$h$s$u$t$t$u$u$j$a$/$X#q#]#E@}@L+7+ +k@w$x$K#w$X@J#f$}$H#|$*$*$|$y$f$X@>$,$c#",
"                    * = ! ~ { {  +6+K+[@D@{#p#X#^$0$i$t$t$z$z$t$t$i$0$^$Y#q#]#E@}@L+7+ +K#4 L#c#A$B$b#}$y$1$H#|$|$1$e$C$K#L#=.+ ",
"                          * = Y@ +7+L+}@E@]#q#Y#^$0$i$t$t$z$z$t$t$i$0$^$Y#q#]#E@}@L+7+ +4 =.=.4 >$J#f$e$e$e$e$I#I#b#D$E$4 + =   ",
"                    . . F$  = <  +7+L+}@E@]#q#X#/$a$j$u$u$t$t$u$u$j$a$/$X#q#]#E@}@L+7+ +=.~ ~ G$c#E$X@3$3$X@X@X@X@H$w$c#G$P   . ",
"                    . F$F$  P I$ +7+L+}@E@]#q#X#/$0$j$u$u$t$t$u$u$j$0$/$X#q#]#E@}@L+7+ +~ = = ~ G$4 c#c#c#c#c#c#c#C#4 G$~ =   . ",
"                  * *     = + m  +7+L+}@E@^#r#Z#($b$k$j$j$i$i$j$j$k$b$($Z#r#^#E@}@L+7+ += * * = P ~ + + + + + + + + ~ P = *     ",
"            * = P ~ + { { - ] A  +7+L+}@E@/#s#`#_$c$b$0$a$0$0$a$0$b$c$_$`#s#/#E@}@L+7+ += =       * * * * * * * * * *           ",
"            = ~ a 4 c#b b ; ^ O  +7+L+}@F@(#t# $:$_$($/$/$^$^$/$/$($_$:$ $t#(#F@}@L+7+ +< =   . .                               ",
"        .   P G$c#E$X@H.H.> / N  +7+L+[@E@_#u#.$ $`#Z#X#X#Y#Y#X#X#Z#`# $.$u#_#E@[@L+7+ +3 !   . .                               ",
"          = + 4 w$J#f$$ J$, ( 8 K$L$M$N$O$:#v#u#t#s#r#q#q#q#q#q#q#r#s#t#u#v#:#G@P$Q$R$S$4 + =                                   ",
"    * = P + L#c#o$D$v$T$U$V$_ 9 W$X$Y$Z$`$ %:#_#(#/#^#]#]#]#]#]#]#^#/#(#_#:#.%+%@%#%$%%%5 ] + ! = *                             ",
"    P + a C#,$K#E$H$B$&%*%=%-%L ;%>%,%'%)%`$!%E@F@E@E@E@E@E@E@E@E@E@E@F@E@!%`$~%{%]%^%/%H ^ m a < =                             ",
"  * ~ a c#E$o$E$K#x$w$(%_%:%<%L [%}%|%1%'%Z$N$[@}@}@}@}@}@}@}@}@}@}@}@}@[@N$2%3%4%5%6%7%I / n b [ !                             ",
"  * ~ 4 w$3$J#o$x$4 @ #.8%j._ L 9%0%a%b%c%d%M$L+L+L+L+L+L+L+L+L+L+L+L+L+L+M$d%e%f%g%h%i%J x o c } ~ *                           ",
"  * ~ 4 w$3$J#o$x$4 @ #.8%j._ L j%k%l%m%n%o%p%7+7+7+7+7+7+7+7+7+7+7+7+7+7+p%o%q%r%s%t%u%9 y p d | { *                           ",
"  * ~ a c#E$o$E$K#x$v%d w%I._ L x%y%z%A%B%C%D% + + + + + + + + + + + + + +D%E%B%F%z%E X 0 z , e 1 { *                           ",
"    P + a C#,$K#E$H$B$&%G%=%-%L x%H%$.!.T >.[.[.G G G G [.[.[.[.G G G G G G G !.T $.'.X 0 z , e 1 { *                           ",
"    * = P + L#c#o$D$e$T$I%' -%L Q E ` G G :.$.$.,.G G ,.$.$.$.$.,.G G G G G G >.[.^.E <.K _ , e 1 { *                           ",
"          = + 4 w$J#e$T$J%' G.K%L%0.5.M%f.e.w d.F $.$.F d.w w d.F $.G G G G 8.8.7.9.0.a.b.c., d 1 { *                           ",
"        .   P G$c#A$B$&%*%' k.l.m.N%O%P%C.B.A.Q%w F F w z.R%R%z.e.` G !.!.G 8.s.t.u.v.w.x.y., H.1 { *                           ",
"            = ~ G$C#v%H._%V$J.K.;+S%T%U%w.V%%+Q R Z Z Q%Q W%X%k z.S G !.!.G P.t.O.Y%-+Z%`%,+I.d 1 { *                           ",
"            * = P +  &.&e )+!++&j+i+]+h+@&f+#&$&].v v ].C %&%&d+&&E F G G :._+(+/+^+]+{+~+!+)+# '+{ *                           ",
"                  = { m+c *&o+o@*@Z+Z+=&X+_ W+-&{.;&;&{.s >&,&8 j u E T+'&)&!&u+t+s+r+q+p+o+n+#.m+~ *                           ",
"                .   P I$'+#@$@~&{&e@e@&@c@b@a@7 i ]&]&i 7 ^&^&/&9@j 8@7@D.(&>@=+-@=@*@&@%@$@#@b @@!                             ",
"                    = ~ I$l@_&:&<&[&[&c@n@}&P@|&7 1&1&7 6 2&P@3&0@U N@M@*+4&5&-@6&7&o@c@n@m@l@a ~ =                             ",
"                      = Y@+ Z@_&6#8&8&$@m@5#4#^ / x 9&/ ^ 4#4#5 h 3#2#1#0&]+a&b&c&d&.# #`@Z@+ Y@= *                             ",
"                          = + l@#@e&e&#@l@- - ; > |.|.> ; - =.@ B#A#z#y#f&Z+Z+g&h&i&e#d#4 + =                                   ",
"                        .   ! a b j&j&'+I$~ { b H.$ $ d b =.=.'+d I#@$+$)$f@e@N#k& #d#| M#!   .                                 ",
"                            = < [ l&l&I$~ Y@{ b H.$ $ d b =.=.'+d }$m&<$+$n&R@%@o&`@4 M#< =                                     ",
"                            * = ! ~ ~ P = = + c#X@f$f$X@@ =.=.@ #$b#a#d$p&.@7#$@_&Z@+ ! =                                       ",
"                                * * *     * ~ 4 E$J#J#w$4 + + 4 w$J#b#m$q&)+*&#@l@+ =                                           ",
"                                      .     r&a c#>$>$c#G$~ ~ G$c#w$X@C$s&k@j&b a Y@  .                                         ",
"                                            P + a t&t&G$+ P P ~ G$4 @ b b '+m+@@< =                                             ",
"                                            * P u&~ ~ P = * * = P ~ + { { { ~ ! = *                                             ",
"                                                * * *             * * * * * *                                                   ",
"                                                                                                                                "};
