/* XPM */
static char * door_open_xpm[] = {
"64 64 629 2",
"  	c #ADBC3A",
". 	c #ADBD3A",
"+ 	c #AEBE3A",
"@ 	c #ADBB3A",
"# 	c #AAB13B",
"$ 	c #A4A03C",
"% 	c #9E873E",
"& 	c #986D3F",
"* 	c #955840",
"= 	c #944F40",
"- 	c #945240",
"; 	c #ACBA3A",
"> 	c #ACB83A",
", 	c #AAAE3B",
"' 	c #A69E3D",
") 	c #A1873E",
"! 	c #9D6E3F",
"~ 	c #9B5B40",
"{ 	c #9A5240",
"] 	c #995140",
"^ 	c #9A5440",
"/ 	c #9A5540",
"( 	c #9A5640",
"_ 	c #ABB53B",
": 	c #AAB23B",
"< 	c #A9B13B",
"[ 	c #A9AE3B",
"} 	c #A9A73C",
"| 	c #A9983E",
"1 	c #A98540",
"2 	c #A97141",
"3 	c #A96241",
"4 	c #A85A41",
"5 	c #A75840",
"6 	c #A75940",
"7 	c #A75A40",
"8 	c #A85C41",
"9 	c #A95E42",
"0 	c #A95F42",
"a 	c #AA5F42",
"b 	c #ACB93A",
"c 	c #A9B23B",
"d 	c #A7AB3B",
"e 	c #A5A43C",
"f 	c #A39F3C",
"g 	c #A29E3C",
"h 	c #A49D3C",
"i 	c #A8983E",
"j 	c #AF8E40",
"k 	c #B68242",
"l 	c #BC7643",
"m 	c #BE6D43",
"n 	c #BE6642",
"o 	c #BC6241",
"p 	c #BB603F",
"q 	c #BC6340",
"r 	c #BE6742",
"s 	c #BF6A44",
"t 	c #C06C45",
"u 	c #C06D45",
"v 	c #ABB63B",
"w 	c #A39E3C",
"x 	c #A0913D",
"y 	c #9D893D",
"z 	c #9C863D",
"A 	c #9C853D",
"B 	c #9F863E",
"C 	c #A8853F",
"D 	c #C37F44",
"E 	c #CE7C46",
"F 	c #D37746",
"G 	c #D37144",
"H 	c #D16B41",
"I 	c #CF673F",
"J 	c #D06C41",
"K 	c #D37244",
"L 	c #D57746",
"M 	c #D67A47",
"N 	c #D67B48",
"O 	c #D67A48",
"P 	c #A7A33C",
"Q 	c #A4913E",
"R 	c #A07F3F",
"S 	c #9E723F",
"T 	c #9C6D3F",
"U 	c #A16F40",
"V 	c #AD7341",
"W 	c #BE7844",
"X 	c #D07E47",
"Y 	c #DD8148",
"Z 	c #E48048",
"` 	c #E47A45",
" .	c #E17341",
"..	c #DE6D3E",
"+.	c #E07341",
"@.	c #E37A45",
"#.	c #E58148",
"$.	c #E7844A",
"%.	c #E7854A",
"&.	c #E8854A",
"*.	c #ACBB3A",
"=.	c #ABB63A",
"-.	c #AAB03B",
";.	c #AAA73C",
">.	c #AA993E",
",.	c #AA873F",
"'.	c #AA7541",
").	c #AA6842",
"!.	c #A96142",
"~.	c #AD6542",
"{.	c #B86C44",
"].	c #C97546",
"^.	c #DA7E48",
"/.	c #ED8549",
"(.	c #ED7F46",
"_.	c #EA7741",
":.	c #E7713E",
"<.	c #E97741",
"[.	c #EC7F45",
"}.	c #EF8649",
"|.	c #F08A4B",
"1.	c #F18B4C",
"2.	c #A9B33B",
"3.	c #A6AB3B",
"4.	c #A6A23C",
"5.	c #A8993E",
"6.	c #AE8D40",
"7.	c #B58042",
"8.	c #BB7544",
"9.	c #BF6D45",
"0.	c #BF6945",
"a.	c #C26C45",
"b.	c #C97146",
"c.	c #E3824A",
"d.	c #ED874B",
"e.	c #F18749",
"f.	c #F08146",
"g.	c #ED7941",
"h.	c #EB723E",
"i.	c #EA723E",
"j.	c #ED7841",
"k.	c #F2884A",
"l.	c #F48C4C",
"m.	c #F58E4D",
"n.	c #F48D4D",
"o.	c #F48D4C",
"p.	c #A2913D",
"q.	c #A8873F",
"r.	c #C37D44",
"s.	c #CE7A46",
"t.	c #D47948",
"u.	c #D67848",
"v.	c #D77948",
"w.	c #DB7C49",
"x.	c #E2814A",
"y.	c #EA864B",
"z.	c #EF894B",
"A.	c #A6A33C",
"B.	c #A3803F",
"C.	c #AD7641",
"D.	c #BE7644",
"E.	c #CF7B47",
"F.	c #DE8149",
"G.	c #E5844A",
"H.	c #E9864A",
"I.	c #EC884B",
"J.	c #F1894B",
"K.	c #F08649",
"L.	c #ED8046",
"M.	c #EA7841",
"N.	c #E7723E",
"O.	c #ED8045",
"P.	c #F28A4B",
"Q.	c #F38C4C",
"R.	c #F38B4C",
"S.	c #AAAF3B",
"T.	c #A9873F",
"U.	c #B86F43",
"V.	c #C97346",
"W.	c #DA7C48",
"X.	c #EF8A4B",
"Y.	c #F28B4C",
"Z.	c #F18A4B",
"`.	c #F1894A",
" +	c #F08749",
".+	c #EE8348",
"++	c #E97D45",
"@+	c #E47742",
"#+	c #E17240",
"$+	c #F1884A",
"%+	c #AE8E40",
"&+	c #B58142",
"*+	c #E3814A",
"=+	c #ED884B",
"-+	c #F38B4B",
";+	c #F3894A",
">+	c #F18648",
",+	c #EE8247",
"'+	c #EA7E46",
")+	c #E37A44",
"!+	c #DB7544",
"~+	c #D67243",
"{+	c #DC7544",
"]+	c #EA7E45",
"^+	c #EF8146",
"/+	c #EE8146",
"(+	c #B68142",
"_+	c #C37E44",
":+	c #D07C47",
"<+	c #E3804A",
"[+	c #F08A4C",
"}+	c #F38A4B",
"|+	c #F28648",
"1+	c #EB7C44",
"2+	c #E57843",
"3+	c #D17345",
"4+	c #C97246",
"5+	c #D17445",
"6+	c #E57742",
"7+	c #EA7842",
"8+	c #EC7841",
"9+	c #EB7841",
"0+	c #BC7644",
"a+	c #F0894B",
"b+	c #F08246",
"c+	c #ED7B43",
"d+	c #E87540",
"e+	c #D47143",
"f+	c #C67246",
"g+	c #BC7349",
"h+	c #BD7349",
"i+	c #C77247",
"j+	c #D47243",
"k+	c #E07140",
"l+	c #E7703E",
"m+	c #E9703D",
"n+	c #E8703D",
"o+	c #AA6342",
"p+	c #BF6F45",
"q+	c #D57B48",
"r+	c #F2894B",
"s+	c #F1874A",
"t+	c #F18649",
"u+	c #F08347",
"v+	c #EE7E44",
"w+	c #EC7740",
"x+	c #DE6E3F",
"y+	c #D06F43",
"z+	c #C07147",
"A+	c #B5734A",
"B+	c #C17247",
"C+	c #E56C3B",
"D+	c #E86B3A",
"E+	c #E76B3B",
"F+	c #934E40",
"G+	c #9A5341",
"H+	c #AA5D42",
"I+	c #C16C45",
"J+	c #D77B48",
"K+	c #F28649",
"L+	c #EF8347",
"M+	c #EE8045",
"N+	c #ED7D44",
"O+	c #EB733E",
"P+	c #E76F3D",
"Q+	c #BF7248",
"R+	c #B3744B",
"S+	c #DE6C3E",
"T+	c #E66B3B",
"U+	c #E86A3A",
"V+	c #E96A3A",
"W+	c #9A5241",
"X+	c #F28749",
"Y+	c #ED7C43",
"Z+	c #EB7942",
"`+	c #EB7640",
" @	c #EA6F3D",
".@	c #E66D3C",
"+@	c #E66A3B",
"@@	c #E76A3A",
"#@	c #945140",
"$@	c #E78349",
"%@	c #EE7C43",
"&@	c #EA7540",
"*@	c #E9713E",
"=@	c #E76D3B",
"-@	c #E66B3A",
";@	c #E26A3B",
">@	c #DA6B3D",
",@	c #CC6D42",
"'@	c #BC6F47",
")@	c #B0714A",
"!@	c #BC7047",
"~@	c #DA6A3D",
"{@	c #E1693A",
"]@	c #E46839",
"^@	c #E36839",
"/@	c #BF6B44",
"(@	c #E58048",
"_@	c #ED8247",
":@	c #E8713D",
"<@	c #E76C3B",
"[@	c #E76B3A",
"}@	c #E46A3A",
"|@	c #E16839",
"1@	c #DD6638",
"2@	c #D66438",
"3@	c #CD643A",
"4@	c #BF663E",
"5@	c #B06943",
"6@	c #A56B45",
"7@	c #B16943",
"8@	c #C0663E",
"9@	c #D36337",
"0@	c #D66236",
"a@	c #D56236",
"b@	c #BE6842",
"c@	c #EC7942",
"d@	c #EA733F",
"e@	c #E76E3C",
"f@	c #E66A3A",
"g@	c #E6693A",
"h@	c #E16739",
"i@	c #D96337",
"j@	c #CE5E34",
"k@	c #C25A33",
"l@	c #B55934",
"m@	c #A75A37",
"n@	c #9A5C3B",
"o@	c #905E3E",
"p@	c #915E3E",
"q@	c #9B5C3B",
"r@	c #A85A37",
"s@	c #B35834",
"t@	c #B95731",
"u@	c #BC5631",
"v@	c #BB5631",
"w@	c #A85A40",
"x@	c #BC6341",
"y@	c #E56939",
"z@	c #DD6538",
"A@	c #BA5630",
"B@	c #A54D2D",
"C@	c #93492C",
"D@	c #84482E",
"E@	c #794A31",
"F@	c #734B33",
"G@	c #734C33",
"H@	c #7B4A31",
"I@	c #86492E",
"J@	c #8F472C",
"K@	c #94462A",
"L@	c #964629",
"M@	c #95462A",
"N@	c #BB5F3F",
"O@	c #CE673E",
"P@	c #E66F3D",
"Q@	c #E86E3C",
"R@	c #E86D3B",
"S@	c #E5693A",
"T@	c #C05932",
"U@	c #A44C2C",
"V@	c #843F27",
"W@	c #693624",
"X@	c #573324",
"Y@	c #4F3426",
"Z@	c #4E3627",
"`@	c #4F3627",
" #	c #543526",
".#	c #5B3425",
"+#	c #623323",
"@#	c #653222",
"##	c #663222",
"$#	c #945340",
"%#	c #995440",
"&#	c #A6573F",
"*#	c #BA5D3E",
"=#	c #CD633D",
"-#	c #DC683C",
";#	c #E46A3B",
">#	c #E4693A",
",#	c #C75C33",
"'#	c #AE512E",
")#	c #8E4228",
"!#	c #3F251E",
"~#	c #221F1D",
"{#	c #1D1F1D",
"]#	c #26221E",
"^#	c #28221E",
"/#	c #2A221E",
"(#	c #2D221D",
"_#	c #30211D",
":#	c #32211D",
"<#	c #B95C3E",
"[#	c #CD623C",
"}#	c #DC663B",
"|#	c #E06739",
"1#	c #D86437",
"2#	c #CE5F35",
"3#	c #753824",
"4#	c #4D291F",
"5#	c #1C1C1B",
"6#	c #001419",
"7#	c #001619",
"8#	c #001719",
"9#	c #00171A",
"0#	c #CC623C",
"a#	c #DB663B",
"b#	c #E46939",
"c#	c #DC6538",
"d#	c #CD5F35",
"e#	c #BA5631",
"f#	c #8D4328",
"g#	c #592E20",
"h#	c #39231D",
"i#	c #0E1A1B",
"j#	c #001519",
"k#	c #00161A",
"l#	c #DC673B",
"m#	c #E36939",
"n#	c #C35A33",
"o#	c #A64D2D",
"p#	c #853F27",
"q#	c #2A1F1C",
"r#	c #171B1B",
"s#	c #0A1A1B",
"t#	c #101A1B",
"u#	c #111A1B",
"v#	c #0F1A1B",
"w#	c #E96B3A",
"x#	c #D66336",
"y#	c #BD5731",
"z#	c #99472A",
"A#	c #6D3523",
"B#	c #41251E",
"C#	c #1A1C1B",
"D#	c #161B1B",
"E#	c #131B1B",
"F#	c #141B1B",
"G#	c #944529",
"H#	c #623121",
"I#	c #291F1C",
"J#	c #00151A",
"K#	c #081A1B",
"L#	c #934529",
"M#	c #281E1C",
"N#	c #071A1B",
"O#	c #30211C",
"P#	c #0D1A1B",
"Q#	c #BA5C3E",
"R#	c #32211C",
"S#	c #0C1A1B",
"T#	c #121B1B",
"U#	c #A7573F",
"V#	c #DD673B",
"W#	c #EA6B3A",
"X#	c #00181A",
"Y#	c #06191A",
"Z#	c #05191A",
"`#	c #01191A",
" $	c #08191A",
".$	c #07191A",
"+$	c #B95D3E",
"@$	c #CB623D",
"#$	c #DA673C",
"$$	c #E36A3B",
"%$	c #653322",
"&$	c #33221D",
"*$	c #00191B",
"=$	c #001A1B",
"-$	c #1D1D1C",
";$	c #221E1D",
">$	c #231F1D",
",$	c #A45840",
"'$	c #B55D3F",
")$	c #C6633F",
"!$	c #D4683E",
"~$	c #DB6B3E",
"{$	c #DF6D3E",
"]$	c #CC643A",
"^$	c #8F472B",
"/$	c #36231E",
"($	c #1E1E1E",
"_$	c #2B2220",
":$	c #3C2722",
"<$	c #412923",
"[$	c #432A24",
"}$	c #422A24",
"|$	c #955240",
"1$	c #985440",
"2$	c #A15840",
"3$	c #AE5F41",
"4$	c #BC6542",
"5$	c #C76B42",
"6$	c #CE6E43",
"7$	c #D17043",
"8$	c #85482E",
"9$	c #5B3424",
"0$	c #392620",
"a$	c #352521",
"b$	c #482C26",
"c$	c #58342A",
"d$	c #5F372C",
"e$	c #62382D",
"f$	c #61382D",
"g$	c #9D5941",
"h$	c #A76043",
"i$	c #B16745",
"j$	c #B96D46",
"k$	c #BE7147",
"l$	c #C17248",
"m$	c #7A4A30",
"n$	c #553626",
"o$	c #3F2922",
"p$	c #5E362C",
"q$	c #703F32",
"r$	c #784335",
"s$	c #7A4536",
"t$	c #7A4435",
"u$	c #794435",
"v$	c #975440",
"w$	c #9B5942",
"x$	c #A16144",
"y$	c #A86847",
"z$	c #AE6F49",
"A$	c #B2724A",
"B$	c #B4744B",
"C$	c #A56B46",
"D$	c #744C33",
"E$	c #563929",
"F$	c #4A2F26",
"G$	c #59342A",
"H$	c #6F3E32",
"I$	c #804838",
"J$	c #894C3B",
"K$	c #8C4E3C",
"L$	c #8B4D3C",
"M$	c #B0724A",
"N$	c #A76B46",
"O$	c #945F3F",
"P$	c #7B4E36",
"Q$	c #633E2E",
"R$	c #5B362B",
"S$	c #683A2F",
"T$	c #7B4436",
"U$	c #8A4C3C",
"V$	c #92503F",
"W$	c #94513F",
"X$	c #C07248",
"Y$	c #BD7047",
"Z$	c #B46A44",
"`$	c #A35F3F",
" %	c #8D5138",
".%	c #784233",
"+%	c #703B32",
"@%	c #763E35",
"#%	c #84453A",
"$%	c #8F4C3E",
"%%	c #954F40",
"&%	c #975041",
"*%	c #975141",
"=%	c #D16F43",
"-%	c #CD6D42",
";%	c #C46941",
">%	c #B4603E",
",%	c #A0553B",
"'%	c #8C4A38",
")%	c #824538",
"!%	c #83463A",
"~%	c #8B4A3C",
"{%	c #924E3F",
"]%	c #965040",
"^%	c #D2683D",
"/%	c #C3643D",
"(%	c #B05E3C",
"_%	c #9D583C",
":%	c #91553C",
"<%	c #8E553D",
"[%	c #91573E",
"}%	c #95583F",
"|%	c #975940",
"1%	c #DA6B3B",
"2%	c #CC6B3C",
"3%	c #B96C3D",
"4%	c #A76C3E",
"5%	c #9B6C3E",
"6%	c #976D3F",
"7%	c #996D3F",
"8%	c #9A6D3F",
"9%	c #E96A39",
"0%	c #E56B3A",
"a%	c #DE6F3A",
"b%	c #D0763B",
"c%	c #BF7D3D",
"d%	c #AE833E",
"e%	c #A3873E",
"f%	c #9E883E",
"g%	c #9F873E",
"h%	c #E96939",
"i%	c #E56C3A",
"j%	c #DE743A",
"k%	c #D2813B",
"l%	c #C28E3C",
"m%	c #B2983C",
"n%	c #A89E3D",
"o%	c #A4A03D",
"p%	c #A59F3C",
"q%	c #E8683A",
"r%	c #E8693A",
"s%	c #E56D3A",
"t%	c #DE793A",
"u%	c #D28A3A",
"v%	c #C39B3B",
"w%	c #B5A83B",
"x%	c #ACAF3B",
"y%	c #A8B13B",
"z%	c #E56E3A",
"A%	c #DE7B3A",
"B%	c #D38F3A",
"C%	c #C5A23A",
"D%	c #B7B03A",
"E%	c #AFB83A",
"F%	c #ABBB3A",
"G%	c #DE7C3A",
"H%	c #D3913A",
"I%	c #C5A43A",
"J%	c #B8B33A",
"K%	c #B0BB3A",
"L%	c #ACBE3A",
"                . . . + + @ # $ % & * = = - - - - - - - - - - - - - - - - - - - - - - = = * & % $ # @ + + . . .                 ",
"              @ @ ; ; @ @ > , ' ) ! ~ { ] ^ ^ ^ / / ( ( ( ( ( ( ( ( ( ( ( ( / / ^ ^ ^ ] { ~ ! ) ' , > @ @ ; ; @ @               ",
"            ; > _ : < < < [ } | 1 2 3 4 5 5 6 7 8 9 0 a a a a a a a a a a 0 9 8 7 6 5 5 4 3 2 1 | } [ < < < : _ > ;             ",
"      . .   b c d e f g g h i j k l m n o p p q r s t u u u u u u u u u u t s r q p p o n m l k j i h g g f e d c b   . .       ",
"      . .   v d w x y z A B C k D E F G H I I J K L M N N N O O O O N N N M L K J I I H G F E D k C B A z y x w d v   . .       ",
"          > # P Q R S T T U V W X Y Z `  .....+.@.#.$.%.&.%.%.%.%.%.%.&.%.$.#.@.+..... .` Z Y X W V U T T S R Q P # >           ",
"    *.b =.-.;.>.,.'.).!.!.~.{.].^.%./.(._.:.:.<.[.}.|.1.1.1.1.1.1.1.1.1.1.|.}.[.<.:.:._.(./.%.^.].{.~.!.!.).'.,.>.;.-.=.b *.    ",
"+   b 2.3.4.5.6.7.8.9.0.0.a.b.O c.d.e.f.g.h.i.j.f.k.l.m.m.n.o.o.o.o.n.m.m.l.k.f.j.i.h.g.f.e.d.c.O b.a.0.0.9.8.7.6.5.4.3.2.b   + ",
"+   =.3.g p.q.7.r.s.t.u.u.v.w.x.y.z.k.f.g.h.i.j.f.k.l.m.m.o.o.o.o.o.o.m.m.l.k.f.j.i.h.g.f.k.z.y.x.w.v.u.u.t.s.r.7.q.p.g 3.=.  + ",
"@ > -.A.p.B.C.D.E.F.G.&.&.&.H.I.z.J.K.L.M.N.N.M.O.e.P.Q.Q.R.R.R.R.R.R.Q.Q.P.e.O.M.N.N.M.L.K.J.z.I.H.&.&.&.G.F.E.D.C.B.p.A.-.> @ ",
"# S.} 5.T.C.U.V.W.%.X.Y.Y.1.Z.Z.`. +.+++@+#+#+@+++.+ +$+$+e.e.e.e.e.e.$+$+ +.+++@+#+#+@+++.+ +`.Z.Z.1.Y.Y.X.%.W.V.U.C.T.5.} S.# ",
"$ ' | %+&+D.V.u.*+=+Q.m.m.o.-+;+>+,+'+)+!+~+~+{+@.]+L.^+^+/+/+/+/+/+/+^+^+L.]+@.{+~+~+!+)+'+,+>+;+-+o.m.m.Q.=+*+u.V.D.&+%+| ' $ ",
"% ) 1 (+_+:+W.<+y.[+o.m.m.o.}+|+^+1+2+!+3+4+4+5+!+6+7+8+8+9+9+9+9+9+9+8+8+7+6+!+5+4+4+3+!+2+1+^+|+}+o.m.m.o.[+y.<+W.:+_+(+1 ) % ",
"& ! 2 0+E F.%.d.a+Z.R.Q.Q.}+e.b+c+d+#+e+f+g+h+i+j+k+l+m+m+n+n+n+n+n+n+m+m+l+k+j+i+h+g+f+e+#+d+c+b+e.}+Q.Q.R.Z.a+d.%.F.E 0+2 ! & ",
"* ~ o+p+q+G.z.P.r+$+s+$+$+t+u+v+w+:.x+y+z+A+A+B+y+..C+D+D+E+E+E+E+E+E+D+D+C+..y+B+A+A+z+y+x+:.w+v+u+t+$+$+s+$+r+P.z.G.q+p+o+~ * ",
"F+G+H+I+J+&.Z.;+K+L+/+/+/+M+N+g.O+P+..y+Q+R+R+Q+y+S+T+U+V+U+U+U+U+U+U+V+U+T+S+y+Q+R+R+Q+y+..P+O+g.N+M+/+/+/+L+K+;+Z.&.J+I+H+G+F+",
"F+W+H+I+J+&.`.X+b+Y+Z+9+9+9+`+O+ @.@..y+Q+R+R+Q+y+S++@U+U+U+@@@@@@@@U+U+U++@S+y+Q+R+R+Q+y+...@ @O+`+9+9+9+Z+Y+b+X+`.&.J+I+H+W+F+",
"#@/ a u O $@}.u+%@&@*@n+n+n+P+=@-@;@>@,@'@)@)@!@,@~@{@]@]@^@^@^@^@^@^@]@]@{@~@,@!@)@)@'@,@>@;@-@=@P+n+n+n+*@&@%@u+}.$@O u a / #@",
"- / 9 /@L (@_@v+8+:@<@[@[@T+}@|@1@2@3@4@5@6@6@7@8@3@9@0@0@a@a@a@a@a@a@0@0@9@3@8@7@6@6@5@4@3@2@1@|@}@T+[@[@<@:@8+v+_@(@L /@9 / - ",
"- / 8 b@K @.1+c@d@e@f@@@@@g@h@i@j@k@l@m@n@o@p@q@r@s@t@u@u@v@v@v@v@v@v@u@u@t@s@r@q@p@o@n@m@l@k@j@i@h@g@@@@@f@e@d@c@1+@.K b@8 / - ",
"- / w@x@J +.d+d@m+<@f@@@U+y@z@j@A@B@C@D@E@F@G@H@I@J@K@L@L@M@M@M@M@M@M@L@L@K@J@I@H@G@F@E@D@C@B@A@j@z@y@U+@@f@<@m+d@d++.J x@w@/ - ",
"- ^ 6 N@O@S+P@Q@R@-@f@f@S@h@a@T@U@V@W@X@Y@Z@`@ #.#+#@#####################@#+#.# #`@Z@Y@X@W@V@U@T@a@h@S@f@f@-@R@Q@P@S+O@N@6 ^ - ",
"$#%#&#*#=#-#;#D+D+f@>#|@1@a@,#'#)###!#~#{#]#^#/#(#_#:#:#:#:#:#:#:#:#:#:#:#:#_#(#/#^#]#{#~#!###)#'#,#a@1@|@>#f@D+D+;#-#=#*#&#%#$#",
"$#%#&#<#[#}#>#U+U+S@|#1#2#T@'#M@3#4#5#6#6#7#8#9#9#9#9#9#9#9#9#9#9#9#9#9#9#9#9#9#9#8#7#6#6#5#4#3#M@'#T@2#1#|#S@U+U+>#}#[#<#&#%#$#",
"$#%#&#<#0#a#>#U+D+b#c#d#e#U@f#3#g#h#i#j#j#7#7#k#9#9#9#9#9#9#9#9#9#9#9#9#9#9#9#9#k#7#7#j#j#i#h#g#3#f#U@e#d#c#b#D+U+>#a#0#<#&#%#$#",
"$#%#&#<#[#l#>#D+D+m#1#n#o#p###4#h#q#r#s#s#t#u#t#t#v#i#i#i#i#i#i#i#i#i#i#i#i#v#t#t#u#t#s#s#r#q#h#4###p#o#n#1#m#D+D+>#l#[#<#&#%#$#",
"$#%#&#<#[#l#}@w#w#m#x#y#z#A#B#C#s#r#D#E#E#F#F#F#F#F#F#F#F#F#F#F#F#F#F#F#F#F#F#F#F#F#F#E#E#D#r#s#C#B#A#z#y#x#m#w#w#}@l#[#<#&#%#$#",
"$#%#&#<#[#l#}@w#w#m#a@e#G#H#I#J#k#K#E#F#F#F#F#F#F#F#F#F#F#F#F#F#F#F#F#F#F#F#F#F#F#F#F#F#F#E#K#k#J#I#H#G#e#a@m#w#w#}@l#[#<#&#%#$#",
"$#%#&#<#[#l#}@w#w#m#a@e#L#H#M#J#J#N#E#F#F#F#F#F#F#F#F#F#F#F#F#F#F#F#F#F#F#F#F#F#F#F#F#F#F#E#N#J#J#M#H#L#e#a@m#w#w#}@l#[#<#&#%#$#",
"$#%#&#<#[#l#}@w#w#m#a@v@M@@#O#9#9#P#F#F#F#F#F#F#F#F#F#F#F#F#F#F#F#F#F#F#F#F#F#F#F#F#F#F#F#F#P#9#9#O#@#M@v@a@m#w#w#}@l#[#<#&#%#$#",
"$#%#&#<#[#l#}@w#w#m#a@v@M@##:#9#9#i#F#F#F#F#F#F#F#F#F#F#F#F#F#F#F#F#F#F#F#F#F#F#F#F#F#F#F#F#i#9#9#:###M@v@a@m#w#w#}@l#[#<#&#%#$#",
"$#%#&#<#[#l#}@w#w#m#a@v@M@##:#9#9#i#F#F#F#F#F#F#F#F#F#F#F#F#F#F#F#F#F#F#F#F#F#F#F#F#F#F#F#F#i#9#9#:###M@v@a@m#w#w#}@l#[#<#&#%#$#",
"$#%#&#<#[#l#}@w#w#m#a@v@M@##:#9#9#i#F#F#F#F#F#F#F#F#F#F#F#F#F#F#F#F#F#F#F#F#F#F#F#F#F#F#F#F#i#9#9#:###M@v@a@m#w#w#}@l#[#<#&#%#$#",
"$#%#&#<#[#l#}@w#w#m#a@v@M@##:#9#9#i#F#F#F#F#F#F#F#F#F#F#F#F#F#F#F#F#F#F#F#F#F#F#F#F#F#F#F#F#i#9#9#:###M@v@a@m#w#w#}@l#[#<#&#%#$#",
"$#%#&#<#[#l#}@w#w#m#a@v@M@##:#9#9#i#F#F#F#F#F#F#F#F#F#F#F#F#F#F#F#F#F#F#F#F#F#F#F#F#F#F#F#F#i#9#9#:###M@v@a@m#w#w#}@l#[#<#&#%#$#",
"$#%#&#<#[#l#}@w#w#m#a@v@M@##:#9#9#i#F#F#F#F#F#F#F#F#F#F#F#F#F#F#F#F#F#F#F#F#F#F#F#F#F#F#F#F#i#9#9#:###M@v@a@m#w#w#}@l#[#<#&#%#$#",
"$#%#&#<#[#l#}@w#w#m#a@v@M@##:#9#9#i#F#F#F#F#F#F#F#F#F#F#F#F#F#F#F#F#F#F#F#F#F#F#F#F#F#F#F#F#i#9#9#:###M@v@a@m#w#w#}@l#[#<#&#%#$#",
"$#%#&#<#[#l#}@w#w#m#a@v@M@##:#9#9#i#F#F#F#F#F#F#F#F#F#F#F#F#F#F#F#F#F#F#F#F#F#F#F#F#F#F#F#F#i#9#9#:###M@v@a@m#w#w#}@l#[#<#&#%#$#",
"$#%#&#<#[#l#}@w#w#m#a@v@M@##:#9#9#i#F#F#F#F#F#F#F#F#F#F#F#F#F#F#F#F#F#F#F#F#F#F#F#F#F#F#F#F#i#9#9#:###M@v@a@m#w#w#}@l#[#<#&#%#$#",
"$#%#&#<#[#l#}@w#w#m#a@v@M@##:#9#9#i#F#F#F#F#F#F#F#F#F#F#F#F#F#F#F#F#F#F#F#F#F#F#F#F#F#F#F#F#i#9#9#:###M@v@a@m#w#w#}@l#[#<#&#%#$#",
"$#%#&#<#[#l#}@w#w#m#a@v@M@##:#9#9#i#F#F#F#F#F#F#F#F#F#F#F#F#F#F#F#F#F#F#F#F#F#F#F#F#F#F#F#F#i#9#9#:###M@v@a@m#w#w#}@l#[#<#&#%#$#",
"$#%#&#<#[#l#}@w#w#m#a@v@M@##:#9#9#i#F#F#F#F#F#F#F#F#F#F#F#F#F#F#F#F#F#F#F#F#F#F#F#F#F#F#F#F#i#9#9#:###M@v@a@m#w#w#}@l#[#<#&#%#$#",
"$#%#&#<#[#l#}@w#w#m#a@v@M@##:#9#9#i#F#F#F#F#F#F#F#F#F#F#F#F#F#F#F#F#F#F#F#F#F#F#F#F#F#F#F#F#i#9#9#:###M@v@a@m#w#w#}@l#[#<#&#%#$#",
"$#%#&#<#[#l#}@w#w#m#a@v@M@##:#9#9#i#F#F#F#F#F#F#F#F#F#F#F#F#F#F#F#F#F#F#F#F#F#F#F#F#F#F#F#F#i#9#9#:###M@v@a@m#w#w#}@l#[#<#&#%#$#",
"$#%#&#<#[#l#}@w#w#m#a@v@M@##:#9#9#i#F#F#F#F#F#F#F#F#F#F#F#F#F#F#F#F#F#F#F#F#F#F#F#F#F#F#F#F#i#9#9#:###M@v@a@m#w#w#}@l#[#<#&#%#$#",
"$#%#&#<#[#l#}@w#w#m#a@v@M@##:#9#9#i#F#F#F#F#F#F#F#F#F#F#F#F#F#F#F#F#F#F#F#F#F#F#F#F#F#F#F#F#i#9#9#:###M@v@a@m#w#w#}@l#[#<#&#%#$#",
"$#%#&#Q#[#l#S@w#w#m#a@v@M@##R#9#9#S#T#T#T#T#T#T#T#T#T#T#T#T#T#T#T#T#T#T#T#T#T#T#T#T#T#T#T#T#S#9#9#R###M@v@a@m#w#w#S@l#[#Q#&#%#$#",
"$#%#U#Q#[#V#S@W#W#]@0@u@L@##R#9#7#X#Y#Y#Z#Y#Y#Y#Y#Y#Y#Y#Y#Y#Y#Y#Y#Y#Y#Y#Y#Y#Y#Y#Y#Y#Y#Z#Y#Y#X#7#9#R###L@u@0@]@W#W#S@V#[#Q#U#%#$#",
"$#%#U#Q#[#l#S@W#W#]@0@u@L@##R#9#7#`# $.$.$.$.$.$.$.$.$.$.$.$.$.$.$.$.$.$.$.$.$.$.$.$.$.$.$ $`#7#9#R###L@u@0@]@W#W#S@l#[#Q#U#%#$#",
"$#%#&#+$@$#$$$<@E+{@9@t@K@%$&$*$=$-$;$>$>$>$>$>$>$>$>$>$>$>$>$>$>$>$>$>$>$>$>$>$>$>$>$>$>$;$-$=$*$&$%$K@t@9@{@E+<@$$#$@$+$&#%#$#",
"$#%#,$'$)$!$~${${$~@]$s@^$+#/$($_$:$<$[$[$}$}$}$}$}$}$}$}$}$}$}$}$}$}$}$}$}$}$}$}$}$}$[$[$<$:$_$($/$+#^$s@]$~@{${$~$!$)$'$,$%#$#",
"|$1$2$3$4$5$6$7$7$,@4@m@8$9$0$a$b$c$d$e$e$f$f$f$f$f$f$f$f$f$f$f$f$f$f$f$f$f$f$f$f$f$f$e$e$d$c$b$a$0$9$8$m@4@,@7$7$6$5$4$3$2$1$|$",
"|$1$g$h$i$j$k$l$l$!@5@n@m$n$o$b$p$q$r$s$s$t$u$u$u$u$u$u$u$u$u$u$u$u$u$u$u$u$u$u$u$u$t$s$s$r$q$p$b$o$n$m$n@5@!@l$l$k$j$i$h$g$1$|$",
"|$v$w$x$y$z$A$B$B$)@C$p@D$E$F$G$H$I$J$K$K$L$L$L$L$L$L$L$L$L$L$L$L$L$L$L$L$L$L$L$L$L$L$K$K$J$I$H$G$F$E$D$p@C$)@B$B$A$z$y$x$w$v$|$",
"|$v$w$x$y$z$A$B$B$M$N$O$P$Q$R$S$T$U$V$|$|$W$W$W$W$W$W$W$W$W$W$W$W$W$W$W$W$W$W$W$W$W$W$|$|$V$U$T$S$R$Q$P$O$N$M$B$B$A$z$y$x$w$v$|$",
"|$1$g$h$i$j$k$X$X$Y$Z$`$ %.%+%@%#%$%%%&%*%&%&%&%&%&%&%&%&%&%&%&%&%&%&%&%&%&%&%&%&%&%&%*%&%%%$%#%@%+%.% %`$Z$Y$X$X$k$j$i$h$g$1$|$",
"|$1$2$3$4$5$6$=%=%-%;%>%,%'%)%!%~%{%]%*%*%&%&%&%&%&%&%&%&%&%&%&%&%&%&%&%&%&%&%&%&%&%&%*%*%]%{%~%!%)%'%,%>%;%-%=%=%6$5$4$3$2$1$|$",
"$#%#,$'$)$!$~${${$~$^%/%(%_%:%<%[%}%|%|%|%|%|%|%|%|%|%|%|%|%|%|%|%|%|%|%|%|%|%|%|%|%|%|%|%|%}%[%<%:%_%(%/%^%~${${$~$!$)$'$,$%#$#",
"$#%#&#+$@$#$;@T+T+$$1%2%3%4%5%6%6%7%8%8%8%8%8%8%8%8%8%8%8%8%8%8%8%8%8%8%8%8%8%8%8%8%8%8%8%8%7%6%6%5%4%3%2%1%$$T+T+;@#$@$+$&#%#$#",
"$#%#U#Q#[#l#S@9%9%0%a%b%c%d%e%f%f%g%g%g%g%g%g%g%g%g%g%g%g%g%g%g%g%g%g%g%g%g%g%g%g%g%g%g%g%g%g%f%f%e%d%c%b%a%0%9%9%S@l#[#Q#U#%#$#",
"$#%#U#Q#[#V#S@h%h%i%j%k%l%m%n%o%o%p%p%p%p%p%p%p%p%p%p%p%p%p%p%p%p%p%p%p%p%p%p%p%p%p%p%p%p%p%p%o%o%n%m%l%k%j%i%h%h%S@V#[#Q#U#%#$#",
"$#%#&#Q#[#l#>#q%r%s%t%u%v%w%x%y%y%< -.-.-.-.-.-.-.-.-.-.-.-.-.-.-.-.-.-.-.-.-.-.-.-.-.-.-.-.< y%y%x%w%v%u%t%s%r%q%>#l#[#Q#&#%#$#",
"$#%#&#<#[#l#>#q%q%z%A%B%C%D%E%F%F%; ; ; ; ; ; ; ; ; ; ; ; ; ; ; ; ; ; ; ; ; ; ; ; ; ; ; ; ; ; F%F%E%D%C%B%A%z%q%q%>#l#[#<#&#%#$#",
"$#%#&#<#[#l#>#q%q%z%G%H%I%J%K%L%L%. . . . . . . . . . . . . . . . . . . . . . . . . . . . . . L%L%K%J%I%H%G%z%q%q%>#l#[#<#&#%#$#"};
