/* XPM */
static char * door_closed_xpm[] = {
"16 16 6 1",
" 	c #ADBC3A",
".	c #965340",
"+	c #F38C4C",
"@	c #E66A3A",
"#	c #A3754E",
"$	c #141B1B",
"    ........    ",
"  ..+@++++@+..  ",
" .+++@++++@+++. ",
".+++@#@@@@#@+++.",
".+@@@#@@@@#@@@+.",
".@@@$$$$$$$$@@@.",
".@@$........$@@.",
".@@$.#.##.#.$@@.",
".@@$##.##.##$@@.",
".@@$##.##.##$@@.",
".@@$##.##.##$@@.",
".@@$##.##.##$@@.",
".@@$##.##.##$@@.",
".##$##.##.##$##.",
".@@$##.##.##$@@.",
".@@          @@."};
