/* XPM */
static char * floor_xpm[] = {
"64 64 504 2",
"  	c #ADBC3A",
". 	c #ADBD3A",
"+ 	c #ACB838",
"@ 	c #ABB334",
"# 	c #A9AC2F",
"$ 	c #A8A62A",
"% 	c #A7A227",
"& 	c #A7A025",
"* 	c #ADBB3A",
"= 	c #ADBB39",
"- 	c #ACB738",
"; 	c #ACB236",
"> 	c #ABAC33",
", 	c #AAA631",
"' 	c #AAA22F",
") 	c #A9A12E",
"! 	c #ACBA38",
"~ 	c #ACB938",
"{ 	c #ACB837",
"] 	c #ADB539",
"^ 	c #ADB13B",
"/ 	c #AEAC3D",
"( 	c #AFA73F",
"_ 	c #B0A540",
": 	c #B0A340",
"< 	c #ACB937",
"[ 	c #ABB635",
"} 	c #ABB433",
"| 	c #AAB332",
"1 	c #AAB232",
"2 	c #ACB936",
"3 	c #ABB634",
"4 	c #ABB435",
"5 	c #ADB139",
"6 	c #B0AE42",
"7 	c #B4AC4A",
"8 	c #B7AA51",
"9 	c #B9A854",
"0 	c #BAA856",
"a 	c #ACB636",
"b 	c #ABB233",
"c 	c #AAAE30",
"d 	c #A9AC2E",
"e 	c #A9AB2D",
"f 	c #AAB231",
"g 	c #ABAE33",
"h 	c #AEAC3C",
"i 	c #BAAC57",
"j 	c #C0AC61",
"k 	c #C3AC66",
"l 	c #C4AD69",
"m 	c #ACB437",
"n 	c #ABAF35",
"o 	c #ABAA33",
"p 	c #AAA732",
"q 	c #ACAA36",
"r 	c #B0A942",
"s 	c #B8AA53",
"t 	c #C0AC62",
"u 	c #C7AF6D",
"v 	c #CBB073",
"w 	c #CDB176",
"x 	c #AFA83F",
"y 	c #B0A640",
"z 	c #B0A541",
"A 	c #AEB13B",
"B 	c #B5A84E",
"C 	c #BDAA5C",
"D 	c #C5AD6A",
"E 	c #CCB074",
"F 	c #D0B27A",
"G 	c #D2B37D",
"H 	c #B0AE41",
"I 	c #B4AB4A",
"J 	c #B7A950",
"K 	c #B9A755",
"L 	c #B9A855",
"M 	c #B7A951",
"N 	c #B4AC4B",
"O 	c #B1AE43",
"P 	c #ADBA39",
"Q 	c #C3AC67",
"R 	c #CAAF71",
"S 	c #CFB178",
"T 	c #D3B47F",
"U 	c #B8AA52",
"V 	c #B3AB49",
"W 	c #B0AE40",
"X 	c #C4AC68",
"Y 	c #C4AC67",
"Z 	c #CEB177",
"` 	c #D0B27B",
" .	c #BAAB56",
"..	c #CCB075",
"+.	c #CDB075",
"@.	c #C7AE6D",
"#.	c #AAAF30",
"$.	c #D1B37C",
"%.	c #B6A84E",
"&.	c #D1B37B",
"*.	c #A9AD2E",
"=.	c #ACB737",
"-.	c #BDAA5D",
";.	c #CFB279",
">.	c #D3B37E",
",.	c #D2B37C",
"'.	c #CDB175",
").	c #B9A856",
"!.	c #D3B47E",
"~.	c #CAAF72",
"{.	c #C0AD62",
"].	c #C5AE6A",
"^.	c #D1B27B",
"/.	c #C6AE6A",
"(.	c #BFAB60",
"_.	c #C7AE6C",
":.	c #D1B27C",
"<.	c #C3AB67",
"[.	c #D2B37E",
"}.	c #D0B179",
"|.	c #AAA731",
"1.	c #AFA53F",
"2.	c #B8A652",
"3.	c #C2A964",
"4.	c #CAAC71",
"5.	c #CFAF78",
"6.	c #D1B07B",
"7.	c #D2B17C",
"8.	c #D2B27D",
"9.	c #D0AF79",
"0.	c #CBAD72",
"a.	c #C2A965",
"b.	c #B9A653",
"c.	c #AFA440",
"d.	c #CEB178",
"e.	c #CDB076",
"f.	c #CEB077",
"g.	c #CEAE76",
"h.	c #CAAC70",
"i.	c #B8A653",
"j.	c #AAA531",
"k.	c #AFA23E",
"l.	c #B8A352",
"m.	c #C2A563",
"n.	c #CAA870",
"o.	c #CFAA77",
"p.	c #D1AD7B",
"q.	c #D2B07C",
"r.	c #D2B47D",
"s.	c #D1B07C",
"t.	c #D1AD7A",
"u.	c #CEAA77",
"v.	c #C9A86F",
"w.	c #C1A562",
"x.	c #B8A351",
"y.	c #AFA33E",
"z.	c #C9AF70",
"A.	c #C6AD6C",
"B.	c #C6AC6B",
"C.	c #C8AB6E",
"D.	c #CBAA73",
"E.	c #CCA974",
"F.	c #C2A564",
"G.	c #AFA33F",
"H.	c #A9AB2E",
"I.	c #AAA530",
"J.	c #AFA13D",
"K.	c #B7A04F",
"L.	c #C0A060",
"M.	c #C8A26C",
"N.	c #CDA574",
"O.	c #CFA978",
"P.	c #D1B17C",
"Q.	c #D2B47E",
"R.	c #CCA573",
"S.	c #C7A26B",
"T.	c #BFA05F",
"U.	c #B7A04E",
"V.	c #AFA23D",
"W.	c #AAA630",
"X.	c #ABB333",
"Y.	c #BEA95E",
"Z.	c #BEA75D",
"`.	c #C6A46A",
" +	c #C9A36E",
".+	c #C0A160",
"++	c #B7A050",
"@+	c #AEA23B",
"#+	c #B59F4B",
"$+	c #BD9D5A",
"%+	c #C49D66",
"&+	c #C9A06E",
"*+	c #CDA474",
"=+	c #CFAA78",
"-+	c #D0AF7A",
";+	c #A9AD2F",
">+	c #C5AE69",
",+	c #BDAA5B",
"'+	c #B6A74F",
")+	c #B5A44D",
"!+	c #BAA155",
"~+	c #C09F5F",
"{+	c #C39D64",
"]+	c #BE9D5B",
"^+	c #B69E4C",
"/+	c #AEA13B",
"(+	c #ABB434",
"_+	c #AAA932",
":+	c #AEA43A",
"<+	c #B3A047",
"[+	c #BA9D54",
"}+	c #C09C5F",
"|+	c #C59D67",
"1+	c #C9A16E",
"2+	c #CCA773",
"3+	c #CFAB77",
"4+	c #D0AE7A",
"5+	c #D1AF7B",
"6+	c #AAA831",
"7+	c #AAAD30",
"8+	c #ABB535",
"9+	c #AAA931",
"0+	c #CEAB77",
"a+	c #D0AE79",
"b+	c #D0B079",
"c+	c #CEB078",
"d+	c #C0AD61",
"e+	c #B7AA52",
"f+	c #B1A844",
"g+	c #B4A149",
"h+	c #BB9E55",
"i+	c #BF9B5D",
"j+	c #BA9B55",
"k+	c #B39D47",
"l+	c #ADA138",
"m+	c #AAA52F",
"n+	c #ABB636",
"o+	c #ABAE34",
"p+	c #ADAA39",
"q+	c #B1A542",
"r+	c #B5A04B",
"s+	c #BA9D55",
"t+	c #BF9C5D",
"u+	c #C49F66",
"v+	c #C8A36D",
"w+	c #CCA673",
"x+	c #CEA877",
"y+	c #ADA939",
"z+	c #AAAF31",
"A+	c #AAB032",
"B+	c #ABB133",
"C+	c #ABAD33",
"D+	c #B5A04C",
"E+	c #CDA974",
"F+	c #C9AB6F",
"G+	c #C5AC69",
"H+	c #BAAC56",
"I+	c #B3AC49",
"J+	c #AEAB3D",
"K+	c #ADA93A",
"L+	c #B1A541",
"M+	c #B5A14B",
"N+	c #B99D52",
"O+	c #B99B52",
"P+	c #B59C4B",
"Q+	c #B09D41",
"R+	c #ACA135",
"S+	c #AAA62F",
"T+	c #AAAC2F",
"U+	c #ACB336",
"V+	c #ADAF38",
"W+	c #AEAA3C",
"X+	c #B4A049",
"Y+	c #B89E51",
"Z+	c #BE9E5C",
"`+	c #CCA172",
" @	c #CDA274",
".@	c #ABB134",
"+@	c #AAAE31",
"@@	c #AAAD31",
"#@	c #ABB032",
"$@	c #ABB135",
"%@	c #AEAB3C",
"&@	c #B89E52",
"*@	c #BE9E5D",
"=@	c #C8A16D",
"-@	c #C9A26E",
";@	c #C1A663",
">@	c #BCA75A",
",@	c #B0AF40",
"'@	c #ADB03A",
")@	c #B3A046",
"!@	c #B29E45",
"~@	c #B09D40",
"{@	c #AD9E38",
"]@	c #AAA131",
"^@	c #A9A62E",
"/@	c #AAAC30",
"(@	c #ACBA39",
"_@	c #ACB538",
":@	c #ACB037",
"<@	c #ADAA38",
"[@	c #AEA43C",
"}@	c #B2A045",
"|@	c #B99E52",
"1@	c #BF9D5E",
"2@	c #C59C67",
"3@	c #C89C6C",
"4@	c #CA9B6E",
"5@	c #ACB438",
"6@	c #ACB536",
"7@	c #ABB234",
"8@	c #AAAA2F",
"9@	c #ACB436",
"0@	c #ACB337",
"a@	c #ACAF37",
"b@	c #B2A046",
"c@	c #B99E53",
"d@	c #C09D5E",
"e@	c #C49C66",
"f@	c #C09E60",
"g@	c #BAA055",
"h@	c #B4A34A",
"i@	c #B0A741",
"j@	c #ADB439",
"k@	c #ADA439",
"l@	c #ADA037",
"m@	c #AB9F34",
"n@	c #AA9F30",
"o@	c #A9A22D",
"p@	c #A9A62D",
"q@	c #ABAE32",
"r@	c #ABA934",
"s@	c #C09B5E",
"t@	c #C39963",
"u@	c #C49866",
"v@	c #ABAF33",
"w@	c #AAAF32",
"x@	c #AAAB30",
"y@	c #AAAD32",
"z@	c #ABA834",
"A@	c #AFA43D",
"B@	c #B5A04A",
"C@	c #BB9D56",
"D@	c #BB9B56",
"E@	c #B49E49",
"F@	c #AEA13C",
"G@	c #ABA633",
"H@	c #AAAC32",
"I@	c #ABB335",
"J@	c #ACB235",
"K@	c #ABAC32",
"L@	c #A9A02B",
"M@	c #A8A02A",
"N@	c #A8A22A",
"O@	c #A9A52C",
"P@	c #ABB033",
"Q@	c #ABB735",
"R@	c #B6A04C",
"S@	c #BA9C53",
"T@	c #BC9A58",
"U@	c #BD985A",
"V@	c #AAAE32",
"W@	c #AAB131",
"X@	c #ADA938",
"Y@	c #B1A543",
"Z@	c #B6A14D",
"`@	c #B59B4B",
" #	c #B09D3F",
".#	c #ABA033",
"+#	c #A8A62B",
"@#	c #A8A228",
"##	c #A7A027",
"$#	c #A8A028",
"%#	c #A8A229",
"&#	c #A8A42B",
"*#	c #A9A82E",
"=#	c #ABAF32",
"-#	c #B49D49",
";#	c #B59B4A",
">#	c #ACBA37",
",#	c #AFAB3D",
"'#	c #AC9E36",
")#	c #AAA12E",
"!#	c #A9A52B",
"~#	c #A8A129",
"{#	c #A8A32A",
"]#	c #A9A82D",
"^#	c #ADA43A",
"/#	c #AEA13A",
"(#	c #AE9F3A",
"_#	c #A9A92F",
":#	c #A9AA2F",
"<#	c #ADAF39",
"[#	c #AAA030",
"}#	c #A9A62C",
"|#	c #A9A72D",
"1#	c #ACB736",
"2#	c #A9AA2E",
"3#	c #A9A22C",
"4#	c #A9A32C",
"5#	c #A9A52D",
"6#	c #A9A92E",
"7#	c #A8A029",
"8#	c #AAAD2F",
"9#	c #AAB030",
"0#	c #A8A72A",
"a#	c #A8A428",
"b#	c #A8A329",
"c#	c #A8A42A",
"d#	c #A9A72C",
"e#	c #A8A32B",
"f#	c #ABB534",
"g#	c #A9AC2D",
"h#	c #A9AA2D",
"i#	c #A8A328",
"j#	c #A8A52A",
"k#	c #AAA430",
"l#	c #AAA32F",
"m#	c #AAAB2F",
"n#	c #B0A441",
"o#	c #B0A440",
"p#	c #ADB438",
"q#	c #ADBD3B",
"r#	c #B0AF42",
"s#	c #ADB039",
"t#	c #ACB637",
"u#	c #AAAC31",
"v#	c #A9AC2C",
"w#	c #A9AB2C",
"x#	c #AEAC3B",
"y#	c #A9AE2F",
"z#	c #ACA735",
"A#	c #B0A842",
"B#	c #ACA936",
"C#	c #AFA43F",
"D#	c #B6A74E",
"E#	c #B9A754",
"F#	c #BAA857",
"G#	c #BEAA5D",
"H#	c #ABB734",
"I#	c #C6AD6B",
"J#	c #AEAD3C",
"K#	c #ACAA37",
"L#	c #A8A429",
"M#	c #AAA330",
"N#	c #A8A72B",
"O#	c #A9AA2C",
"P#	c #A8A82B",
"Q#	c #C4AD67",
"R#	c #CCB175",
"S#	c #A8A529",
"T#	c #A8A327",
"U#	c #A8A227",
"V#	c #B9A654",
"W#	c #C3AA65",
"X#	c #CFAF79",
"Y#	c #C9A76F",
"Z#	c #CCA973",
"`#	c #CBAA72",
" $	c #C9AF71",
".$	c #C7AD6C",
"+$	c #C6A26A",
"@$	c #C8A26D",
"#$	c #C5A469",
"$$	c #BDA75C",
"%$	c #BFAA5F",
"&$	c #BEAA5F",
"*$	c #AAB031",
"=$	c #B69F4C",
"-$	c #BAA154",
";$	c #B7A750",
">$	c #BDAB5D",
",$	c #B7A850",
"'$	c #C5AD69",
")$	c #BA9E55",
"!$	c #B8AB53",
"~$	c #C6AE6B",
"{$	c #B2A845",
"]$	c #B1A845",
"^$	c #B2A443",
"/$	c #B6A04D",
"($	c #BFAC5F",
"_$	c #AFAC3E",
":$	c #B3AC48",
"<$	c #AFAA3E",
"[$	c #B1A443",
"}$	c #B3A146",
"|$	c #ADAE38",
"1$	c #B6AA50",
"2$	c #ADB03B",
"3$	c #AFAF40",
"4$	c #ADA53A",
"5$	c #AFA83E",
"6$	c #ABAA32",
"7$	c #AAA02E",
"8$	c #B29D45",
"9$	c #AFAA3D",
"0$	c #ACA034",
"a$	c #A9A52E",
"b$	c #ADB939",
"c$	c #A9AB2F",
"d$	c #ACB435",
"e$	c #ACB939",
"                                                                      . .   + @ # $ % & & % $ # @ +   . .                       ",
"                          * * * * * * * * * *                             = - ; > , ' ) ) ' , > ; - =                           ",
"                    * = ! ~ { { { { { { { { ~ ! = *                 * = ! + ] ^ / ( _ : : _ ( / ^ ] + ! = *                     ",
"                    = < [ } | 1 1 1 1 1 1 | } [ < =                 = 2 3 4 5 6 7 8 9 0 0 9 8 7 6 5 4 3 2 =                     ",
"                .   ! a b c d e e e e e e d c b a !   .         .   ! 3 f g h 7 i j k l l k j i 7 h g f 3 !   .                 ",
"                  = + m n o p , , , , , , p o n m + =             = + 4 g q r s t u v w w v u t s r q g 4 + =                   ",
"            * = ! + ] ^ / x y z z z z z z y x / A ] + ! = * * = ! + ] 5 h r B C D E F G G F E D C B r h 5 ] + ! = *             ",
"            = 2 3 4 5 H I J 9 K K L L K K 9 M N O A m a < P P < a m ^ H I s C Q R S G T T G S R Q C U V W 5 4 3 2 =             ",
"        .   ! 3 f g h I i j k X X Y Y X X k j i N / n b [ ~ ~ [ b n / I i t D R Z ` G T T G ` Z R D j  .V h g f 3 !   .         ",
"          = + 4 g q r s t u v ..+.E E +.+.v @.j M x o #.} { { } #.o x J j u E S ` $.G G G G $.` S E u j U r q g 4 + =           ",
"    * = ! + ] 5 h r %.C D E F $.$.&.$.$.$.F v k 9 y p *.| =.=.| *.p y 9 k v F G G G G G G G G G G F ..D C %.r h 5 ] + ! = *     ",
"    = < a m ^ 6 7 s -.Y R ;.G >.>.>.>.T T ,.'.X ).z , d 1 =.=.1 d , z 0 X '.$.T !.G G G G G G >.T G ;.~.X -.s 7 6 ^ m a < =     ",
"    ! [ b n / 7 i {.].R Z ` G >.>.>.>.T T ,.'.X 0 z , d 1 =.=.1 d , z 0 X '.$.T !.G G G G G G >.>.>.^.Z ~./.{.i 7 / n b [ !     ",
"  * ~ } c o x J (._.E S F :.G G G G G >.>.^.E <.K _ , d | =.=.| d , _ K <.E ^.[.>.G G G G G G G $.:.F }.Z E _.(.J x o c } ~ *   ",
"  * { | d |.1.2.3.4.5.6.7.8.G G G G 8.8.7.9.0.a.b.c., d | =.=.| d , c.b.a.0.9.7.8.8.G G G G $.F d.w e.f.5.g.h.3.i.1.|.d | { *   ",
"  * { 1 e j.k.l.m.n.o.p.q.8.G r.r.G 8.s.t.u.v.w.x.y., d | =.=.| d , y.x.w.v.u.t.s.8.G !.!.G ` w z.A.B.C.D.E.v.F.l.G., H.1 { *   ",
"  * { 1 H.I.J.K.L.M.N.O.p.P.G Q.Q.G P.t.O.R.S.T.U.V.W.d X.=.=.X.d W.V.U.T.S.R.O.t.P.G !.!.G S z.k Y.Z.w.`. +S..+++V.I.H.1 { *   ",
"  * { X.# W.@+#+$+%+&+*+=+-+:.G G :.-+=+*+&+%+$+#+@+W.;+X.=.=.X.;+W.@+#+$+%+&+*+=+-+:.G G F E >+,+'+)+!+~+%+{+]+^+/+I.d | { *   ",
"  * ~ (+#._+:+<+[+}+|+1+2+3+4+5+5+4+3+2+1+|+}+[+<+:+6+7+1 8+8+1 7+9+:+<+[+}+|+1+2+0+a+b+c+E u d+e+f+_ g+h+i+i+j+k+l+m+# X.{ *   ",
"    ! n+b o+p+q+r+s+t+u+v+w+x+O.O.x+w+v+u+t+s+r+q+y+> z+A+B+B+A+z+C+p+q+D+s+t+u+ +w+E+D.F+G+j H+I+J+K+L+M+N+O+P+Q+R+S+T+X.+   . ",
"    = ~ a U+V+W+L+X+Y+Z+u+1+`+ @ @`+1+u+Z+Y+X+q+W+V+.@A++@@@@@z+#@$@V+%@q+X+&@*@u+=@-@`.;@>@U I+,@'@V+%@q+)@!@~@{@]@^@/@@ +   . ",
"    * = (@+ _@:@<@[@}@|@1@2@3@4@4@3@2@1@|@}@[@<@:@5@6@7@+@8@8@@@B+9@0@a@<@[@b@c@d@e@%+f@g@h@i@h 5 j@5@V+y+k@l@m@n@o@p@/@7@=.P   ",
"          = + 4 q@r@[@X+s+s@t@u@u@t@s@s+X+[@r@v@4 - =.4 w@x@8@@@B+4 9@B+y@z@A@B@C@i+i+D@E@F@G@H@I@=.=.J@K@m+o@L@M@N@O@8@P@6@=.+ ",
"        .   ! Q@| q@<@q+R@S@T@U@U@T@S@R@q+<@q@X.Q@! P =.@ w@+@V@P@7@b W@#.@@X@Y@Z@N+O+`@ #.#O@d X.{ { (+7++#@###$#%#&#*#/@=#.@7@",
"            = < Q@4 :@W+q+)@-#;#;#-#)@q+W+:@4 Q@>#= = ~ =.4 7@P@V@@@+@z+W@B+a@,#Y@)@!@ #'#)#!#d X.{ { (+7++#@###$#~#{#O@]#8@x@/@",
"              = ! + _@V+p+^#/#(#(#/#^#p+V+_@+ ! = = = P ~ =.6@P@/@_#:#@@b 9@m <#y+k@l@m@[#o@p@7+@ =.=.7@/@}#%#$#$#~#N@{#!#}#p@|#",
"                  = + U+o+_+W.I.I.W._+o+9@+ P P ! ~ { { { 1#4 w@2#}#|#/@7@=.=.J@K@m+o@3#4#5#6#@@7@9@4 P@8@O@%#7#7#~#N@{#!#}#p@|#",
"                .   (@a b #.;+d d 8#z+@ =.(@= ~ Q@} | 1 | 1 9#e 0#a#$ # @ { { @ T++#b#c#d#8@@@w@P@B+=#/@|#e#~#$#$#~#N@O@|#8@x@/@",
"                    = < n+(+X.1 | X.f#1#! = ! 1#b c d d d g#h#0#a#i#$ # @ { { @ T++#j#d#T+w@B+P@w@/@8@|#!#N@~#$#$#~#e#|#/@=#.@7@",
"                    * = ! ~ { { =.=.{ ~ P P + m n o p , , , , k#l#l#, > ; - =.7@/@|#|#m#P@4 6@7@+@:#p@!#e#{#N@~#~#{#}#m#P@6@=.+ ",
"                          * = (@~ { =.{ { =.] ^ / x y z z z _ n#o#_ x / ^ p#6@B+7+:#8@V@4 =.=.4 =#8@|#}#}#}#}#O@O@p@_#V@4 + =   ",
"                    . . q#  = < Q@} | f f b 5 6 7 J 9 K K L L L L 9 8 7 r#s#B+9#c +@=#I@=.~ ~ t#7@V@/@x@x@/@/@/@/@u#w@7@t#P   . ",
"                    . q#q#  P 1#X.#.d v#w#u#x#7 i j k X X Y Y X X k j i 7 h y@y#9#b 4 =.~ = = ~ t#4 7@7@7@7@7@7@7@I@4 t#~ =   . ",
"                  * *     = + m n o |.S+S+z#A#s {.u v ..+.E E +.+.v u t s r B#y@B+6@{ ~ = * * = P ~ + + + + + + + + ~ P = *     ",
"            * = P ~ + { { - ] A / x y C#C#Y@D#C ].E F $.$.&.&.$.$.F E D C B A#x#s#_@- ~ = =       * * * * * * * * * *           ",
"            = ~ a 4 7@b b ; ^ O N M 9 E#K F#G#Q R S G >.>.>.>.>.>.G S R Q C U V W 5 4 H#< =   . .                               ",
"        .   P t#7@V@/@H.H.> / N i j k Y Y X I#z.w ` G >.>.>.>.>.>.G ` Z R D j H+I+J#v@f 3 !   . .                               ",
"          = + 4 w@8@|#$ j#, ( 8 j u v ......w d.F $.G G G G G G G G $.` S E u j U r K#g 4 + =                                   ",
"    * = P + 6@7@@@_#d#a#i#l#_ 9 k v F $.$.$.$.$.,.G G G G G G G G G G G G F E D C B r h 5 ] + ! = *                             ",
"    P + a I@.@P@V@u#:#0#L#M#o#L X +.$.T T >.>.[.G G G G G G G G G G G >.>.G S R Q C s I H ^ m a < =                             ",
"  * ~ a 7@V@@@V@P@B+w@g#N#k#n#L X +.$.T T >.>.[.G G G G G G G G G G G [.>.G ` Z R D t i I / n b [ !                             ",
"  * ~ 4 w@x@8@@@B+4 @ #.O#j._ L Y E $.>.>.G G G G G G G G G G G G G G G G G $.` S E u j J x o c } ~ *                           ",
"  * ~ 4 w@x@8@@@B+4 @ #.O#j._ L Y E &.>.>.G G G G G G G G G G G G G G G G G G G G F v k 9 y p d | { *                           ",
"  * ~ a 7@V@@@V@P@B+A+d P#I._ L Q#R#$.!.T >.>.[.G G G G [.>.>.[.G G G G G G G !.T $.'.X 0 z , e 1 { *                           ",
"    P + a I@.@P@V@u#:#0#S#M#o#L Q#R#$.!.T >.[.[.G G G G [.[.[.[.G G G G G G G !.T $.'.X 0 z , e 1 { *                           ",
"    * = P + 6@7@@@_#}#a#T#' o#L Q E ` G G :.$.$.,.G G ,.$.$.$.$.,.G G G G G G >.[.^.E <.K _ , e 1 { *                           ",
"          = + 4 w@8@}#a#U#' G.V#W#0.5.X#f.e.w d.F $.$.F d.w w d.F $.G G G G 8.8.7.9.0.a.b.c., d 1 { *                           ",
"        .   P t#7@+@:#0#L#' k.l.m.Y#Z#`#C.B.A. $w F F w z..$.$z.e.` G !.!.G 8.s.t.u.v.w.x.y., H.1 { *                           ",
"            = ~ t#I@A+H.N#l#J.K..++$@$#$w.$$Y.Q R Z Z  $Q %$&$k z.S G !.!.G P.t.O.R.S.T.U.V.I.d 1 { *                           ",
"            * = P + 8+*$e W.@+=$]+{+%+~+-$)+;$>$].v v ].C ,$,$,+'$E F G G :.-+=+*+&+%+$+#+@+W.# X.{ *                           ",
"                  = { (+c 9+:+X+s+i+i+)$g+_ f+!${.~$~${.s {$]$8 j u E c+b+a+0+2+1+|+}+[+<+:+_+#.(+~ *                           ",
"                .   P 1#X.o+p+^$/$N+N+r+L+K+J+7 i ($($i 7 _$_$:$H+j G+F+D.E+w+ +u+t+s+r+q+p+o+b n+!                             ",
"                    = ~ 1#U+<#<$[$}$}$L+W+|$'@r#7 1$1$7 6 2$'@3$I+U >@;@`.-@=@u+*@&@X+L+W+V+U+a ~ =                             ",
"                      = (@+ _@<#y+4$4$p+V+5@j@^ / x 5$/ ^ j@j@5 h i@h@g@f@%+e@d@c@b@[@<@:@_@+ (@= *                             ",
"                          = + U+o+6$6$o+U+- - ; > |.|.> ; - =.@ H@G@F@E@D@i+i+C@B@A@r@q@4 + =                                   ",
"                        .   ! a b z+z+X.1#~ { b H.$ $ d b =.=.X.d O@.# #;#O+N+R@Y@<@q@| Q@!   .                                 ",
"                            = < [ f#f#1#~ (@{ b H.$ $ d b =.=.X.d !#7$'# #8$)@q+9$:@4 Q@< =                                     ",
"                            * = ! ~ ~ P = = + 7@/@|#|#/@@ =.=.@ 7+p@o@[#0$l+k@p+<#_@+ ! =                                       ",
"                                * * *     * ~ 4 V@8@8@w@4 + + 4 w@8@p@5#a$W.9+o+U++ =                                           ",
"                                      .     b$a 7@=#=#7@t#~ ~ t#7@w@/@m#c$T+z+b a (@  .                                         ",
"                                            P + a d$d$t#+ P P ~ t#4 @ b b X.(+n+< =                                             ",
"                                            * P e$~ ~ P = * * = P ~ + { { { ~ ! = *                                             ",
"                                                * * *             * * * * * *                                                   ",
"                                                                                                                                "};
