/* XPM */
static char * floor1_xpm[] = {
"16 16 2 1",
" 	c #ADBC3A",
".	c #A8A129",
"                ",
"                ",
"                ",
"            ..  ",
"        .. .  . ",
"       .  .  .. ",
"        . . ....",
"          . ... ",
"                ",
"  ..  ..        ",
" .  ..  .       ",
"  . .  .        ",
"    . ...       ",
"      ..        ",
"                ",
"                "};
