/* XPM */
static char * flooe_xpm[] = {
"16 16 4 1",
" 	c #ADBC3A",
".	c #A8A129",
"+	c #D2B37D",
"@	c #C8966B",
"          ..    ",
"   ...   .++.   ",
"  .+++. .++++.  ",
" .++++. .+++++. ",
" .@++@. .@++.@. ",
"  .@@. . .@. .. ",
"   ..   . .. ...",
"      ... . ... ",
"    ..+++.      ",
"  ..++++++.     ",
" . .+++++++.    ",
"  ..+++++++.    ",
"   .@.+.++@.    ",
"    . . .@.     ",
"      . ..      ",
"                "};
