/* XPM */
static char * front_e_xpm[] = {
"16 16 8 1",
" 	c #ADBC3A",
".	c #A8A129",
"+	c #141B1B",
"@	c #D2B37D",
"#	c #79B8CE",
"$	c #FFFFFF",
"%	c #4A5270",
"&	c #548789",
"          ..    ",
"   ..++++++@.   ",
"  .++######++.  ",
" .+#$$######$+. ",
" +##$$#######$+ ",
" +$$#########$+ ",
"+#$$#+####+###$+",
"+#####+##+####$+",
"+#############$+",
" ++#########$++ ",
" . +%%&&&&%%+   ",
"+++%&&&&&&&&&+++",
"+&%+&&%&&&%%%%&+",
"+&&%&&%&&&%&+&&+",
"+&&&&+++&&&&+&&+",
" ++++  ++++++++ "};
