/* XPM */
static char * right_xpm[] = {
"16 16 8 1",
" 	c #ADBC3A",
".	c #141B1B",
"+	c #A8A129",
"@	c #E0394C",
"#	c #D2B37D",
"$	c #EF914F",
"%	c #E46D3A",
"&	c #C8966B",
"   ...    ++    ",
"  .@@.   +##+   ",
"  .@$@. +####+  ",
" .@%$@@..#####+ ",
" .@%$$$@@..#+&+ ",
" .@%$$$$%@@. ++ ",
" .@%$$$$$$$@.+++",
" .@%%$$$$.$$@.+ ",
" .@@%%%%$$.$@.  ",
"  .@@%%%%$$$$@. ",
" +.@@@@%%%%%%@. ",
"  +.@@@@@@@@@.  ",
"   +.@%%%@...   ",
"   .@.@@%%@.    ",
"   .@.@@.$@.    ",
"    .@...@.     "};
