/* XPM */
static char * wall_xpm[] = {
"64 64 477 2",
"  	c #ADBC3A",
". 	c #ADBD3A",
"+ 	c #AEBD3A",
"@ 	c #AEBE3A",
"# 	c #B0BF3B",
"$ 	c #ACBB3A",
"% 	c #A1AF36",
"& 	c #8C9931",
"* 	c #6D7A29",
"= 	c #455320",
"- 	c #0F271A",
"; 	c #000017",
"> 	c #000918",
", 	c #000E18",
"' 	c #ABBA3A",
") 	c #ABBA39",
"! 	c #A8B739",
"~ 	c #9FAC36",
"{ 	c #8D9831",
"] 	c #757B2B",
"^ 	c #585825",
"/ 	c #3F3721",
"( 	c #33231F",
"_ 	c #32221F",
": 	c #36291F",
"< 	c #372B20",
"[ 	c #A5B338",
"} 	c #A2B037",
"| 	c #A0AF36",
"1 	c #9EAC36",
"2 	c #99A335",
"3 	c #909333",
"4 	c #857D31",
"5 	c #7A662F",
"6 	c #73532E",
"7 	c #704B2D",
"8 	c #714D2D",
"9 	c #714E2D",
"0 	c #A9B839",
"a 	c #A1B037",
"b 	c #98A734",
"c 	c #8F9E31",
"d 	c #899930",
"e 	c #87972F",
"f 	c #899630",
"g 	c #8D9232",
"h 	c #948A35",
"i 	c #9B8139",
"j 	c #A2783C",
"k 	c #A5723D",
"l 	c #A6703E",
"m 	c #A6713E",
"n 	c #AFBE3A",
"o 	c #A6B438",
"p 	c #99A834",
"q 	c #899730",
"r 	c #79872B",
"s 	c #6D7B28",
"t 	c #667727",
"u 	c #667627",
"v 	c #6F792A",
"w 	c #827C30",
"x 	c #B28541",
"y 	c #C48A48",
"z 	c #CD8C4B",
"A 	c #D08D4C",
"B 	c #D18D4D",
"C 	c #CF8D4C",
"D 	c #A1AF37",
"E 	c #939E33",
"F 	c #80882E",
"G 	c #6D712A",
"H 	c #5E5F26",
"I 	c #535624",
"J 	c #535524",
"K 	c #645D28",
"L 	c #826A31",
"M 	c #A67B3D",
"N 	c #C68B48",
"O 	c #DD9851",
"P 	c #E99F55",
"Q 	c #EEA157",
"R 	c #EDA056",
"S 	c #ECA056",
"T 	c #A5B438",
"U 	c #A1AE37",
"V 	c #9AA435",
"W 	c #919433",
"X 	c #878031",
"Y 	c #7D6A30",
"Z 	c #765A2E",
"` 	c #70502D",
" .	c #7D5931",
"..	c #966939",
"+.	c #B77E44",
"@.	c #D6924E",
"#.	c #ECA156",
"$.	c #F9A95B",
"%.	c #FDAC5C",
"&.	c #FCAB5C",
"*.	c #FBAB5C",
"=.	c #AFBE3B",
"-.	c #A1B136",
";.	c #97A734",
">.	c #909D32",
",.	c #8E9332",
"'.	c #938935",
").	c #9A7F38",
"!.	c #A0763C",
"~.	c #A36F3D",
"{.	c #A36C3D",
"].	c #A9713F",
"^.	c #B87C44",
"/.	c #CE8B4C",
"(.	c #E49B54",
"_.	c #F5A75A",
":.	c #FFAE5D",
"<.	c #FFB05F",
"[.	c #FFAF5E",
"}.	c #7D872D",
"|.	c #847E30",
"1.	c #997E38",
"2.	c #B08341",
"3.	c #C28847",
"4.	c #CC8A4B",
"5.	c #CE8A4C",
"6.	c #CF8A4C",
"7.	c #D08C4D",
"8.	c #D8914F",
"9.	c #E39A53",
"0.	c #F0A358",
"a.	c #FAAA5B",
"b.	c #FFAE5E",
"c.	c #FFB05E",
"d.	c #A9B739",
"e.	c #A1AE36",
"f.	c #74732C",
"g.	c #846E32",
"h.	c #A5793D",
"i.	c #C58948",
"j.	c #DD9751",
"k.	c #E99E55",
"l.	c #EDA157",
"m.	c #EDA057",
"n.	c #EFA257",
"o.	c #F3A459",
"p.	c #F8A75A",
"q.	c #FCAA5B",
"r.	c #FEAB5C",
"s.	c #FFAC5C",
"t.	c #8F9332",
"u.	c #847F30",
"v.	c #976D39",
"w.	c #B77D44",
"x.	c #D5914E",
"y.	c #FBAA5B",
"z.	c #FBA85B",
"A.	c #FBA75A",
"B.	c #FBA559",
"C.	c #FBA458",
"D.	c #FBA558",
"E.	c #938A35",
"F.	c #E49953",
"G.	c #F5A659",
"H.	c #FFAD5D",
"I.	c #FDA75A",
"J.	c #FAA156",
"K.	c #F79B54",
"L.	c #F69852",
"M.	c #F59751",
"N.	c #F69751",
"O.	c #747B2B",
"P.	c #9B8039",
"Q.	c #B18441",
"R.	c #F1A258",
"S.	c #FAA95B",
"T.	c #FFAA5B",
"U.	c #FBA257",
"V.	c #F28F4D",
"W.	c #F0894A",
"X.	c #EF8649",
"Y.	c #EF8648",
"Z.	c #EF8749",
"`.	c #F08849",
" +	c #7A652F",
".+	c #A1783C",
"++	c #C38948",
"@+	c #FDAB5C",
"#+	c #FCA559",
"$+	c #F3904D",
"%+	c #EE8447",
"&+	c #EC7D43",
"*+	c #EB7A42",
"=+	c #EB7942",
"-+	c #EA7941",
";+	c #EB7B42",
">+	c #FEAC5C",
",+	c #FDA85B",
"'+	c #F99F56",
")+	c #F59651",
"!+	c #F18C4C",
"~+	c #EE8247",
"{+	c #EC7C43",
"]+	c #E97540",
"^+	c #E8723E",
"/+	c #E8703D",
"(+	c #EB7B43",
"_+	c #FEAA5B",
":+	c #FCA659",
"<+	c #F9A156",
"[+	c #F3924E",
"}+	c #F28D4C",
"|+	c #F08A4A",
"1+	c #EE8347",
"2+	c #E9753F",
"3+	c #E76F3D",
"4+	c #FFAC5D",
"5+	c #FDA85A",
"6+	c #F9A056",
"7+	c #F38F4D",
"8+	c #F3914E",
"9+	c #F59550",
"0+	c #EB7C43",
"a+	c #E9733F",
"b+	c #F79B53",
"c+	c #F28E4D",
"d+	c #F89E55",
"e+	c #FBA358",
"f+	c #F89D54",
"g+	c #EA7841",
"h+	c #714E2E",
"i+	c #372B1F",
"j+	c #A5703D",
"k+	c #CF8B4B",
"l+	c #EC9F56",
"m+	c #FBA95B",
"n+	c #001019",
"o+	c #37291F",
"p+	c #704A2C",
"q+	c #A36B3B",
"r+	c #CC8648",
"s+	c #E99952",
"t+	c #F8A458",
"u+	c #FEA95B",
"v+	c #FFAB5C",
"w+	c #FEAA5C",
"x+	c #001219",
"y+	c #35271E",
"z+	c #6D4529",
"A+	c #A06237",
"B+	c #C87B43",
"C+	c #E48E4D",
"D+	c #F49A53",
"E+	c #FEA75A",
"F+	c #00141A",
"G+	c #34251E",
"H+	c #6A3E27",
"I+	c #9B5832",
"J+	c #C36E3C",
"K+	c #DF8045",
"L+	c #EF8D4C",
"M+	c #F79952",
"N+	c #FDA95B",
"O+	c #00161A",
"P+	c #33231D",
"Q+	c #683724",
"R+	c #984D2D",
"S+	c #BE6036",
"T+	c #DA713E",
"U+	c #EA8146",
"V+	c #F48F4D",
"W+	c #F99B54",
"X+	c #00171A",
"Y+	c #32211D",
"Z+	c #663322",
"`+	c #954629",
" @	c #BB5731",
".@	c #D76839",
"+@	c #E77741",
"@@	c #F08648",
"#@	c #F5934F",
"$@	c #F99E55",
"%@	c #32211C",
"&@	c #663122",
"*@	c #954429",
"=@	c #BB5430",
"-@	c #D66337",
";@	c #E6713D",
">@	c #EE7E44",
",@	c #F2894A",
"'@	c #F4934F",
")@	c #FAA157",
"!@	c #FCA75A",
"~@	c #00181A",
"{@	c #663222",
"]@	c #964429",
"^@	c #BB5530",
"/@	c #D66336",
"(@	c #E56D3C",
"_@	c #EC7640",
":@	c #EE7D44",
"<@	c #EF8548",
"[@	c #653222",
"}@	c #934529",
"|@	c #B95530",
"1@	c #D36236",
"2@	c #E16A3A",
"3@	c #E76E3C",
"4@	c #E9723E",
"5@	c #ED8246",
"6@	c #2F201C",
"7@	c #603021",
"8@	c #8D4228",
"9@	c #B0522F",
"0@	c #CA5D34",
"a@	c #D96437",
"b@	c #E06738",
"c@	c #E3693A",
"d@	c #E66E3C",
"e@	c #F89D55",
"f@	c #281F1C",
"g@	c #562D20",
"h@	c #7F3D26",
"i@	c #A04B2B",
"j@	c #B95630",
"k@	c #CA5D33",
"l@	c #D56135",
"m@	c #DD6437",
"n@	c #ED7E44",
"o@	c #F1894A",
"p@	c #F4924F",
"q@	c #F69952",
"r@	c #241E1C",
"s@	c #4B291F",
"t@	c #6E3623",
"u@	c #8C4327",
"v@	c #A44D2C",
"w@	c #B7552F",
"x@	c #C75B32",
"y@	c #DF6738",
"z@	c #EB7640",
"A@	c #EF8447",
"B@	c #F08749",
"C@	c #F0884A",
"D@	c #171C1B",
"E@	c #291F1C",
"F@	c #44271E",
"G@	c #5E3120",
"H@	c #773A24",
"I@	c #8D4427",
"J@	c #A34D2B",
"K@	c #B8562F",
"L@	c #CB5E34",
"M@	c #DA6537",
"N@	c #E36A3A",
"O@	c #E97640",
"P@	c #35211C",
"Q@	c #3B231D",
"R@	c #49281E",
"S@	c #592E1F",
"T@	c #6B3622",
"U@	c #7E3E24",
"V@	c #934728",
"W@	c #AA502D",
"X@	c #BF5931",
"Y@	c #CF6035",
"Z@	c #E06839",
"`@	c #E56C3B",
" #	c #E76D3B",
".#	c #E76D3C",
"+#	c #4E231E",
"@#	c #51241E",
"##	c #57281F",
"$#	c #5F2E20",
"%#	c #6A3421",
"&#	c #783B23",
"*#	c #894326",
"=#	c #9C4B2A",
"-#	c #AF522E",
";#	c #D56236",
">#	c #DC6537",
",#	c #E26739",
"'#	c #E66939",
")#	c #E7693A",
"!#	c #632D20",
"~#	c #652E20",
"{#	c #683021",
"]#	c #6B3321",
"^#	c #713722",
"/#	c #793C23",
"(#	c #834025",
"_#	c #8F4527",
":#	c #C75C33",
"<#	c #D46135",
"[#	c #DF6638",
"}#	c #E56839",
"|#	c #E8693A",
"1#	c #E76939",
"2#	c #764324",
"3#	c #774224",
"4#	c #784124",
"5#	c #7A4024",
"6#	c #7C3F24",
"7#	c #803F25",
"8#	c #844125",
"9#	c #8A4326",
"0#	c #954728",
"a#	c #A44E2B",
"b#	c #B85630",
"c#	c #E26839",
"d#	c #E4693A",
"e#	c #E5693A",
"f#	c #E46939",
"g#	c #E36939",
"h#	c #856228",
"i#	c #846028",
"j#	c #835D28",
"k#	c #825627",
"l#	c #804D26",
"m#	c #7E4525",
"n#	c #7E4024",
"o#	c #7D3D24",
"p#	c #854125",
"q#	c #D76437",
"r#	c #DB6537",
"s#	c #93822E",
"t#	c #92802D",
"u#	c #8F792C",
"v#	c #8B6E2A",
"w#	c #865E28",
"x#	c #814E26",
"y#	c #7D4124",
"z#	c #7A3B23",
"A#	c #793B23",
"B#	c #9D4B2A",
"C#	c #BD5831",
"D#	c #C55C33",
"E#	c #C85D33",
"F#	c #9E9D33",
"G#	c #9D9A33",
"H#	c #999231",
"I#	c #93832E",
"J#	c #835627",
"K#	c #7E4324",
"L#	c #7A3A23",
"M#	c #793923",
"N#	c #914628",
"O#	c #A74F2C",
"P#	c #AD512D",
"Q#	c #AE522E",
"R#	c #A7B037",
"S#	c #A5AD37",
"T#	c #A1A435",
"U#	c #855D28",
"V#	c #7B3923",
"W#	c #813F25",
"X#	c #864226",
"Y#	c #8C4427",
"Z#	c #944728",
"`#	c #AAB739",
" $	c #9C9A33",
".$	c #917F2D",
"+$	c #866128",
"@$	c #7F4725",
"#$	c #7C3924",
"$$	c #7C3923",
"%$	c #7F3F24",
"&$	c #814025",
"*$	c #824025",
"=$	c #AEBE3B",
"-$	c #92822E",
";$	c #866228",
">$	c #7C3823",
",$	c #7D3E24",
"'$	c #7C3E24",
")$	c #7B3D24",
"!$	c #7A3D24",
"              . + + @ # # $ % & * = - ; ; > , , , , , , , , , , , , , , , , , , , , > ; ; - = * & % $ # # @ + + .               ",
"              $ ' ) ) $ $ ! ~ { ] ^ / ( _ : < < < < < < < < < < < < < < < < < < < < : _ ( / ^ ] { ~ ! $ $ ) ) ' $               ",
"            ) ! [ } | | | 1 2 3 4 5 6 7 7 8 9 9 9 9 9 9 9 9 9 9 9 9 9 9 9 9 9 9 9 9 8 7 7 6 5 4 3 2 1 | | | } [ ! )             ",
"      + +   0 a b c d e e f g h i j k l l m m m m m m m m m m m m m m m m m m m m m m l l k j i h g f e e d c b a 0   + +       ",
"      + n $ o p q r s t u v w i x y z A B A C C C C C C C C C C C C C C C C C C C C A B A z y x i w v u t s r q p o $ n +       ",
"        $ 0 D E F G H I J K L M N O P Q Q R S S S S S S S S S S S S S S S S S S S S R Q Q P O N M L K J I H G F E D 0 $         ",
"    ) 0 T U V W X Y Z ` `  ...+.@.#.$.%.%.&.*.*.*.*.*.*.*.*.*.*.*.*.*.*.*.*.*.*.*.*.&.%.%.$.#.@.+... .` ` Z Y X W V U T 0 )     ",
"=.  0 -.;.>.,.'.).!.~.{.{.].^./.(._.:.<.<.[.[.[.[.[.[.[.[.[.[.[.[.[.[.[.[.[.[.[.[.[.[.<.<.:._.(./.^.].{.{.~.!.).'.,.>.;.-.0   =.",
"=.  T ;.e }.|.1.2.3.4.5.6.7.8.9.0.a.b.c.c.[.[.[.[.[.[.[.[.[.[.[.[.[.[.[.[.[.[.[.[.[.[.c.c.b.a.0.9.8.7.6.5.4.3.2.1.|.}.e ;.T   =.",
"' d.e.>.}.f.g.h.i.j.k.l.l.m.n.o.p.q.r.s.s.s.s.s.s.s.s.s.s.s.s.s.s.s.s.s.s.s.s.s.s.s.s.s.s.r.q.p.o.n.m.l.l.k.j.i.h.g.f.}.>.e.d.' ",
"% ~ V t.u.g.v.w.x.S $.%.%.&.y.z.A.B.B.C.C.C.C.C.C.D.D.C.C.C.C.C.C.C.C.C.C.D.D.C.C.C.C.C.C.B.B.A.z.y.&.%.%.$.S x.w.v.g.u.t.V ~ % ",
"& { 3 E.).h.w.5.F.G.H.c.<.b.s.I.J.K.L.M.M.N.N.L.L.L.L.L.L.N.N.N.N.N.N.L.L.L.L.L.L.N.N.M.M.L.K.J.I.s.b.<.c.H.G.F.5.w.h.).E.3 { & ",
"* O.4 P.Q.i.x.F.R.S.:.c.<.b.T.U.L.V.W.X.Y.Z.Z.`.`.`.`.`.`.Z.Z.Z.Z.Z.Z.`.`.`.`.`.`.Z.Z.Y.X.W.V.L.U.T.b.<.c.:.S.R.F.x.i.Q.P.4 O.* ",
"= ^  +.+++j.S G.S.@+H.:.H.r.#+K.$+%+&+*+*+*+*+*+=+-+-+=+*+*+;+;+;+;+*+*+=+-+-+=+*+*+*+*+*+&+%+$+K.#+r.H.:.H.@+S.G.S j.++.+ +^ = ",
"- / 6 k z P $.H.H.H.>+r.,+B.'+)+!+~+{+*+*+*+-+]+^+/+/+^+]+-+*+(+(+*+-+]+^+/+/+^+]+-+*+*+*+{+~+!+)+'+B.,+r.>+H.H.H.$.P z k 6 / - ",
"; ( 7 l A Q %.[.[.H._+:+<+K.)+[+}+|+`.Z.Z.Y.1+{+2+3+3+2+{+1+X.`.`.X.1+{+2+3+3+2+{+1+Y.Z.Z.`.|+}+[+)+K.<+:+_+H.[.[.%.Q A l 7 ( ; ",
"; _ 7 l B Q %.c.[.4+5+6+N.7+!+}+8+9+M.L.L.)+8+Z.0+a+a+0+Z.8+)+L.L.)+8+Z.0+a+a+0+Z.8+)+L.L.M.9+8+}+!+7+N.6+5+4+[.c.%.Q B l 7 _ ; ",
"> : 8 m A R &.[.[.s.:+b+c+%+~+|+9+d+e+:+:+e+f+8+1+g+g+1+8+f+e+:+:+e+f+8+1+g+g+1+8+f+e+:+:+e+d+9+|+~+%+c+b+:+s.[.[.&.R A m 8 : > ",
", < 9 m C S *.[.[.s.B.L.W.&+{+`.M.e+_+H.H._+e+)+X.*+*+X.)+e+_+H.H._+e+)+X.*+*+X.)+e+_+H.H._+e+M.`.{+&+W.L.B.s.[.[.*.S C m 9 < , ",
", < 9 m C S *.[.[.s.C.M.X.*+*+Z.N.B.4+c.c.4+B.L.`.(+(+`.L.B.4+c.c.4+B.L.`.(+(+`.L.B.4+c.c.4+B.N.Z.*+*+X.M.C.s.[.[.*.S C m 9 < , ",
", < 9 m C S *.[.[.s.C.M.Y.*+*+Z.N.B.4+c.c.4+B.L.`.(+(+`.L.B.4+c.c.4+B.L.`.(+(+`.L.B.4+c.c.4+B.N.Z.*+*+Y.M.C.s.[.[.*.S C m 9 < , ",
", < 9 m C S *.[.[.s.C.N.Z.*+*+Z.N.D.>+[.[.>+D.N.Z.;+;+Z.N.D.>+[.[.>+D.N.Z.;+;+Z.N.D.>+[.[.>+D.N.Z.*+*+Z.N.C.s.[.[.*.S C m 9 < , ",
", < 9 m C S *.[.[.s.C.N.Z.;+;+Z.N.C.>+[.[.>+C.N.Z.;+;+Z.N.C.>+[.[.>+C.N.Z.;+;+Z.N.C.>+[.[.>+C.N.Z.;+;+Z.N.C.s.[.[.*.S C m 9 < , ",
", < 9 m C S *.[.[.s.C.N.Z.;+;+Z.N.C.>+[.[.>+C.N.Z.;+;+Z.N.C.>+[.[.>+C.N.Z.;+;+Z.N.C.>+[.[.>+C.N.Z.;+;+Z.N.C.s.[.[.*.S C m 9 < , ",
", < 9 m C S *.[.[.s.C.N.Z.;+;+Z.N.C.>+[.[.>+C.N.Z.;+;+Z.N.C.>+[.[.>+C.N.Z.;+;+Z.N.C.>+[.[.>+C.N.Z.;+;+Z.N.C.s.[.[.*.S C m 9 < , ",
", < 9 m C S *.[.[.s.C.N.Z.;+;+Z.N.C.>+[.[.>+C.N.Z.;+;+Z.N.C.>+[.[.>+C.N.Z.;+;+Z.N.C.>+[.[.>+C.N.Z.;+;+Z.N.C.s.[.[.*.S C m 9 < , ",
", < 9 m C S *.[.[.s.C.N.Z.;+;+Z.N.C.>+[.[.>+C.N.Z.;+;+Z.N.C.>+[.[.>+C.N.Z.;+;+Z.N.C.>+[.[.>+C.N.Z.;+;+Z.N.C.s.[.[.*.S C m 9 < , ",
", < 9 m C S *.[.[.s.C.N.Z.;+;+Z.N.C.>+[.[.>+C.N.Z.;+;+Z.N.C.>+[.[.>+C.N.Z.;+;+Z.N.C.>+[.[.>+C.N.Z.;+;+Z.N.C.s.[.[.*.S C m 9 < , ",
", < 9 m C S *.[.[.s.C.N.Z.;+;+Z.N.C.>+[.[.>+C.N.Z.;+;+Z.N.C.>+[.[.>+C.N.Z.;+;+Z.N.C.>+[.[.>+C.N.Z.;+;+Z.N.C.s.[.[.*.S C m 9 < , ",
", < 9 m C S *.[.[.s.C.N.Z.;+;+Z.N.C.>+[.[.>+C.N.Z.;+;+Z.N.C.>+[.[.>+C.N.Z.;+;+Z.N.C.>+[.[.>+C.N.Z.;+;+Z.N.C.s.[.[.*.S C m 9 < , ",
", < 9 m C S *.[.[.s.C.N.Z.;+;+Z.N.C.>+[.[.>+C.N.Z.;+;+Z.N.C.>+[.[.>+C.N.Z.;+;+Z.N.C.>+[.[.>+C.N.Z.;+;+Z.N.C.s.[.[.*.S C m 9 < , ",
", < 9 m C S *.[.[.s.C.N.Z.;+;+Z.N.C.>+[.[.>+C.N.Z.;+;+Z.N.C.>+[.[.>+C.N.Z.;+;+Z.N.C.>+[.[.>+C.N.Z.;+;+Z.N.C.s.[.[.*.S C m 9 < , ",
", < 9 m C S *.[.[.s.C.N.Z.;+;+Z.N.C.>+[.[.>+C.N.Z.;+;+Z.N.C.>+[.[.>+C.N.Z.;+;+Z.N.C.>+[.[.>+C.N.Z.;+;+Z.N.C.s.[.[.*.S C m 9 < , ",
", < 9 m C S *.[.[.s.C.N.Z.;+;+Z.N.C.>+[.[.>+C.N.Z.;+;+Z.N.C.>+[.[.>+C.N.Z.;+;+Z.N.C.>+[.[.>+C.N.Z.;+;+Z.N.C.s.[.[.*.S C m 9 < , ",
", < 9 m C S *.[.[.s.C.N.Z.*+*+Z.N.D.>+[.[.>+D.N.Z.;+;+Z.N.D.>+[.[.>+D.N.Z.;+;+Z.N.D.>+[.[.>+D.N.Z.*+*+Z.N.C.s.[.[.*.S C m 9 < , ",
", < 9 m C S *.[.[.s.C.M.Y.*+*+Z.N.B.4+c.c.4+B.L.`.(+(+`.L.B.4+c.c.4+B.L.`.(+(+`.L.B.4+c.c.4+B.N.Z.*+*+Y.M.C.s.[.[.*.S C m 9 < , ",
", < 9 m C S *.[.[.s.C.M.X.*+*+Z.N.B.4+c.c.4+B.L.`.(+(+`.L.B.4+c.c.4+B.L.`.(+(+`.L.B.4+c.c.4+B.N.Z.*+*+X.M.C.s.[.[.*.S C m 9 < , ",
", < 9 m C S *.[.[.s.B.L.W.&+{+`.M.e+_+H.H._+e+)+X.*+*+X.)+e+_+H.H._+e+)+X.*+*+X.)+e+_+H.H._+e+M.`.{+&+W.L.B.s.[.[.*.S C m 9 < , ",
", < 9 m C S &.[.[.s.:+b+c+%+~+|+9+d+e+:+:+e+f+8+1+g+g+1+8+f+e+:+:+e+f+8+1+g+g+1+8+f+e+:+:+e+d+9+|+~+%+c+b+:+s.[.[.&.S C m 9 < , ",
", < h+m A l.&.[.[.4+5+6+N.7+!+}+8+9+M.L.L.)+8+Z.0+a+a+0+Z.8+)+L.L.)+8+Z.0+a+a+0+Z.8+)+L.L.M.9+8+}+!+7+N.6+5+4+[.[.&.l.A m h+< , ",
", < h+m A l.&.[.[.H._+:+J.K.)+[+}+|+`.Z.Z.Y.1+{+2+3+3+2+{+1+X.`.`.X.1+{+2+3+3+2+{+1+Y.Z.Z.`.|+}+[+)+K.J.:+_+H.[.[.&.l.A m h+< , ",
", i+8 j+k+l+m+H.:.H.>+r.,+B.'+)+!+~+{+*+*+*+-+]+^+/+/+^+]+-+*+(+(+*+-+]+^+/+/+^+]+-+*+*+*+{+~+!+)+'+B.,+r.>+H.:.H.m+l+k+j+8 i+, ",
"n+o+p+q+r+s+t+u+v+s.H.H.H.w+B.K.7+%+&+*+*+*+*+*+=+-+-+=+*+*+;+;+;+;+*+*+=+-+-+=+*+*+*+*+*+&+%+7+K.B.w+H.H.H.s.v+u+t+s+r+q+p+o+n+",
"x+y+z+A+B+C+D+U.E+r.H.[.[.H.,+J.N.c+W.X.Y.Z.Z.`.`.`.`.`.`.Z.Z.Z.Z.Z.Z.`.`.`.`.`.`.Z.Z.Y.X.W.c+N.J.,+H.[.[.H.r.E+U.D+C+B+A+z+y+x+",
"F+G+H+I+J+K+L+M+U.N+H.[.[.H.r.:+6+b+L.M.M.N.N.L.L.L.L.L.L.N.N.N.N.N.N.L.L.L.L.L.L.N.N.M.M.L.b+6+:+r.H.[.[.H.N+U.M+L+K+J+I+H+G+F+",
"O+P+Q+R+S+T+U+V+W+#+w+H.H.H.>+_+5+:+B.C.C.C.C.C.C.D.D.C.C.C.C.C.C.C.C.C.C.D.D.C.C.C.C.C.C.B.:+5+_+>+H.H.H.w+#+W+V+U+T+S+R+Q+P+O+",
"X+Y+Z+`+ @.@+@@@#@$@B.N+r.>+H.H.4+>+>+>+>+>+>+>+>+>+>+>+>+>+>+>+>+>+>+>+>+>+>+>+>+>+>+>+>+>+>+4+H.H.>+r.N+B.$@#@@@+@.@ @`+Z+Y+X+",
"X+%@&@*@=@-@;@>@,@'@b+)@!@r.H.[.[.[.[.[.[.[.[.[.[.[.[.[.[.[.[.[.[.[.[.[.[.[.[.[.[.[.[.[.[.[.[.[.[.H.r.!@)@b+'@,@>@;@-@=@*@&@%@X+",
"~@%@{@]@^@/@(@_@:@<@c+L.)@N+H.[.[.[.[.[.[.[.[.[.[.[.[.[.[.[.[.[.[.[.[.[.[.[.[.[.[.[.[.[.[.[.[.[.[.H.N+)@L.c+<@:@_@(@/@^@]@{@%@~@",
"~@%@[@}@|@1@2@3@4@g+5@c+b+D._+4+4+>+>+>+>+>+>+>+>+>+>+>+>+>+>+>+>+>+>+>+>+>+>+>+>+>+>+>+>+>+>+4+4+_+D.b+c+5@g+4@3@2@1@|@}@[@%@~@",
"~@6@7@8@9@0@a@b@c@d@g+Y.'@e@e+#+#+B.D.D.D.D.D.D.D.D.D.D.D.D.D.D.D.D.D.D.D.D.D.D.D.D.D.D.D.D.B.#+#+e+e@'@Y.g+d@c@b@a@0@9@8@7@6@~@",
"X+f@g@h@i@j@k@l@m@c@^+n@o@p@N.q@q@L.L.L.L.L.L.L.L.L.L.L.L.L.L.L.L.L.L.L.L.L.L.L.L.L.L.L.L.L.L.q@q@N.p@o@n@^+c@m@l@k@j@i@h@g@f@X+",
"~@r@s@t@u@v@w@x@l@y@3@z@n@A@B@W.W.C@C@C@C@C@C@C@C@C@C@C@C@C@C@C@C@C@C@C@C@C@C@C@C@C@C@C@C@C@C@W.W.B@A@n@z@3@y@l@x@w@v@u@t@s@r@~@",
"D@E@F@G@H@I@J@K@L@M@N@3+a+O@g+g+g+g+g+g+g+g+g+g+g+g+g+g+g+g+g+g+g+g+g+g+g+g+g+g+g+g+g+g+g+g+g+g+g+g+O@a+3+N@M@L@K@J@I@H@G@F@E@D@",
"P@Q@R@S@T@U@V@W@X@Y@M@Z@N@`@ #.#.#.#.#.#.#.#.#.#.#.#.#.#.#.#.#.#.#.#.#.#.#.#.#.#.#.#.#.#.#.#.#.#.# #`@N@Z@M@Y@X@W@V@U@T@S@R@Q@P@",
"+#@###$#%#&#*#=#-#X@L@;#>#,#'#)#)#)#)#)#)#)#)#)#)#)#)#)#)#)#)#)#)#)#)#)#)#)#)#)#)#)#)#)#)#)#)#)#)#'#,#>#;#L@X@-#=#*#&#%#$###@#+#",
"!#~#{#]#^#/#(#_#=#W@K@:#<#[#}#|#|#1#1#1#1#1#1#1#1#1#1#1#1#1#1#1#1#1#1#1#1#1#1#1#1#1#1#1#1#1#1#|#|#}#[#<#:#K@W@=#_#(#/#^#]#{#~#!#",
"2#2#3#4#5#6#7#8#9#0#a#b#L@a@c#d#e#f#g#g#g#g#g#g#g#g#g#g#g#g#g#g#g#g#g#g#g#g#g#g#g#g#g#g#g#g#f#e#d#c#a@L@b#a#0#9#8#7#6#5#4#3#2#2#",
"h#i#j#k#l#m#n#o#U@p#0#W@X@Y@q#r#r#M@a@a@a@a@a@a@a@a@a@a@a@a@a@a@a@a@a@a@a@a@a@a@a@a@a@a@a@a@M@r#r#q#Y@X@W@0#p#U@o#n#m#l#k#j#i#h#",
"s#t#u#v#w#x#y#z#A#U@9#B#-#C#D#E#E#:#:#:#:#:#:#:#:#:#:#:#:#:#:#:#:#:#:#:#:#:#:#:#:#:#:#:#:#:#:#E#E#D#C#-#B#9#U@A#z#y#x#w#v#u#t#s#",
"F#G#H#I#v#J#K#L#M#o#8#N#B#O#P#-#-#-#Q#Q#Q#Q#Q#Q#Q#Q#Q#Q#Q#Q#Q#Q#Q#Q#Q#Q#Q#Q#Q#Q#Q#Q#Q#Q#Q#Q#-#-#-#P#O#B#N#8#o#M#L#K#J#v#I#H#G#F#",
"R#S#T#H#u#U#m#V#V#o#W#X#Y#N#Z#0#0#0#0#0#0#0#0#0#0#0#0#0#0#0#0#0#0#0#0#0#0#0#0#0#0#0#0#0#0#0#0#0#0#Z#N#Y#X#W#o#V#V#m#U#u#H#T#S#R#",
"$ `#S# $.$+$@$#$$$o#U@%$7#&$*$*$*$*$*$*$*$*$*$*$*$*$*$*$*$*$*$*$*$*$*$*$*$*$*$*$*$*$*$*$*$*$*$*$*$*$&$7#%$U@o#$$#$@$+$.$ $S#`#$ ",
"=$$ R#F#-$;$@$#$>$o#,$'$)$)$!$!$!$!$!$!$!$!$!$!$!$!$!$!$!$!$!$!$!$!$!$!$!$!$!$!$!$!$!$!$!$!$!$!$!$!$)$)$'$,$o#>$#$@$;$-$F#R#$ =$"};
