/* XPM */
static char * wall_xpm[] = {
"16 16 5 1",
" 	c #ADBC3A",
".	c #141B1B",
"+	c #FFAD5D",
"@	c #E66A3A",
"#	c #7D3E24",
"    ........    ",
"  ..++++++++..  ",
" .++++++++++++. ",
".+++@@@@@@@@+++.",
".++@++@++@++@++.",
".++@++@++@++@++.",
".++@++@++@++@++.",
".++@++@++@++@++.",
".++@++@++@++@++.",
".++@++@++@++@++.",
".+++@@@@@@@@+++.",
".@++++++++++++@.",
".@@++++++++++@@.",
".#@@@@@@@@@@@@#.",
"###@@@@@@@@@@###",
" ############## "};
